<svg width="16" height="16" viewBox="0 0 16 16" fill="none" xmlns="http://www.w3.org/2000/svg">
<path d="M8.55 10.522C8.11667 10.5247 7.69289 10.4782 7.27867 10.3827C6.86444 10.2871 6.508 10.0898 6.20933 9.79067C5.96978 9.55156 5.78533 9.27822 5.656 8.97067C5.52622 8.66311 5.46133 8.34089 5.46133 8.004C5.46133 7.85867 5.47133 7.72044 5.49133 7.58933C5.51089 7.45778 5.54578 7.32489 5.596 7.19067C5.62356 7.10889 5.62089 7.02911 5.588 6.95133C5.55511 6.87356 5.50311 6.81956 5.432 6.78933C5.35867 6.75956 5.28378 6.76178 5.20733 6.796C5.13089 6.83022 5.07889 6.88844 5.05133 6.97067C4.99578 7.13733 4.952 7.30622 4.92 7.47733C4.888 7.648 4.872 7.82222 4.872 8C4.872 8.41867 4.95156 8.818 5.11067 9.198C5.27022 9.578 5.49689 9.91489 5.79067 10.2087C6.13378 10.5624 6.54445 10.8013 7.02267 10.9253C7.50089 11.0498 7.98644 11.1131 8.47933 11.1153L7.83733 11.758C7.78 11.8153 7.74911 11.8829 7.74467 11.9607C7.74022 12.0384 7.77111 12.1102 7.83733 12.176C7.90356 12.2418 7.97311 12.2747 8.046 12.2747C8.11889 12.2747 8.18867 12.2418 8.25533 12.176L9.27067 11.1607C9.37822 11.0527 9.432 10.9269 9.432 10.7833C9.432 10.6398 9.37822 10.5142 9.27067 10.4067L8.25533 9.39133C8.19756 9.33356 8.13 9.30267 8.05267 9.29867C7.97489 9.29422 7.90311 9.32511 7.83733 9.39133C7.77156 9.45756 7.73867 9.52711 7.73867 9.6C7.73867 9.67289 7.77156 9.74267 7.83733 9.80933L8.55 10.522ZM7.45933 5.47467C7.89267 5.47467 8.31689 5.52222 8.732 5.61733C9.14756 5.71244 9.50489 5.90956 9.804 6.20867C10.0431 6.44822 10.2276 6.72178 10.3573 7.02933C10.4871 7.33689 10.5518 7.65911 10.5513 7.996C10.5513 8.14133 10.5416 8.27956 10.522 8.41067C10.5024 8.54178 10.4673 8.67444 10.4167 8.80867C10.3896 8.89089 10.3924 8.97156 10.4253 9.05067C10.4582 9.12978 10.51 9.18422 10.5807 9.214C10.6544 9.24378 10.7296 9.24378 10.806 9.214C10.8824 9.18422 10.9342 9.12822 10.9613 9.046C11.0169 8.87933 11.0609 8.70778 11.0933 8.53133C11.1253 8.35489 11.1413 8.17778 11.1413 8C11.1413 7.58133 11.0629 7.182 10.906 6.802C10.7491 6.422 10.5224 6.08378 10.226 5.78733C9.88022 5.43311 9.46822 5.19489 8.99 5.07267C8.51222 4.95 8.02667 4.88867 7.53333 4.88867L8.18 4.242C8.23422 4.18467 8.26356 4.11711 8.268 4.03933C8.27244 3.96156 8.24178 3.88978 8.176 3.824C8.11022 3.75822 8.04044 3.72556 7.96667 3.726C7.89289 3.72644 7.82333 3.75911 7.758 3.824L6.74267 4.84C6.63467 4.948 6.58067 5.07378 6.58067 5.21733C6.58067 5.36089 6.63467 5.48644 6.74267 5.594L7.758 6.60933C7.81533 6.66711 7.88289 6.698 7.96067 6.702C8.03844 6.706 8.11022 6.67533 8.176 6.61C8.24178 6.54467 8.27467 6.47489 8.27467 6.40067C8.27467 6.32644 8.24178 6.25689 8.176 6.192L7.45933 5.47467ZM8 14C7.17156 14 6.39245 13.8422 5.66267 13.5267C4.93289 13.2107 4.298 12.7827 3.758 12.2427C3.21756 11.7022 2.78956 11.0671 2.474 10.3373C2.158 9.60756 2 8.82844 2 8C2 7.17156 2.15778 6.39245 2.47333 5.66267C2.78889 4.93289 3.21711 4.298 3.758 3.758C4.29889 3.218 4.93378 2.78978 5.66267 2.47333C6.39289 2.15778 7.172 2 8 2C8.828 2 9.60711 2.15778 10.3373 2.47333C11.0671 2.78933 11.702 3.21756 12.242 3.758C12.7824 4.298 13.2104 4.93289 13.526 5.66267C13.842 6.39289 14 7.172 14 8C14 8.828 13.8422 9.60711 13.5267 10.3373C13.2107 11.0671 12.7827 11.702 12.2427 12.242C11.7022 12.7824 11.0671 13.2104 10.3373 13.526C9.60756 13.842 8.82844 14 8 14ZM8 13.3333C9.48889 13.3333 10.75 12.8167 11.7833 11.7833C12.8167 10.75 13.3333 9.48889 13.3333 8C13.3333 6.51111 12.8167 5.25 11.7833 4.21667C10.75 3.18333 9.48889 2.66667 8 2.66667C6.51111 2.66667 5.25 3.18333 4.21667 4.21667C3.18333 5.25 2.66667 6.51111 2.66667 8C2.66667 9.48889 3.18333 10.75 4.21667 11.7833C5.25 12.8167 6.51111 13.3333 8 13.3333Z" fill="#616161"/>
</svg>
