<svg width="14" height="14" viewBox="0 0 14 14" fill="none" xmlns="http://www.w3.org/2000/svg">
<path d="M13.4613 7.28329L8.02977 1.85172C7.9285 1.74979 7.808 1.66897 7.67526 1.61396C7.54252 1.55895 7.40018 1.53084 7.25649 1.53125H2.1875C2.01346 1.53125 1.84654 1.6004 1.72347 1.72347C1.6004 1.84654 1.53125 2.01346 1.53125 2.1875V7.25649C1.53084 7.40018 1.55895 7.54252 1.61396 7.67526C1.66897 7.808 1.74979 7.9285 1.85172 8.02977L7.28329 13.4613C7.48839 13.6664 7.76654 13.7816 8.05657 13.7816C8.34659 13.7816 8.62474 13.6664 8.82985 13.4613L13.4613 8.82985C13.6664 8.62474 13.7816 8.34659 13.7816 8.05657C13.7816 7.76654 13.6664 7.48839 13.4613 7.28329ZM8.05657 12.3785L2.84375 7.16407V2.84375H7.16407L12.3769 8.05657L8.05657 12.3785ZM5.46875 4.59375C5.46875 4.76681 5.41744 4.93599 5.32129 5.07988C5.22514 5.22377 5.08849 5.33592 4.9286 5.40215C4.76872 5.46838 4.59278 5.4857 4.42305 5.45194C4.25332 5.41818 4.09741 5.33484 3.97504 5.21247C3.85267 5.0901 3.76933 4.93419 3.73557 4.76446C3.70181 4.59473 3.71913 4.41879 3.78536 4.25891C3.85159 4.09902 3.96374 3.96236 4.10763 3.86622C4.25152 3.77007 4.4207 3.71875 4.59375 3.71875C4.82582 3.71875 5.04838 3.81094 5.21247 3.97504C5.37657 4.13913 5.46875 4.36169 5.46875 4.59375Z" fill="#939393"/>
</svg>
