<svg width="16" height="16" viewBox="0 0 16 16" fill="none" xmlns="http://www.w3.org/2000/svg">
<g clip-path="url(#clip0_802_5504)">
<path d="M12.4335 1.89996L12.8401 4.47329L15.1801 5.66663L14.0001 7.99996L15.1868 10.3333L12.8268 11.5266L12.4201 14.1L9.82681 13.6933L7.98014 15.5333L6.12681 13.6666L3.55348 14.0933L3.14014 11.5L0.813477 10.3133L2.00014 7.97996L0.820143 5.66663L3.16014 4.45996L3.56681 1.90663L6.14681 2.33329L8.00014 0.459961L9.84681 2.30663L12.4335 1.89996ZM6.33348 4.66663C6.06826 4.66663 5.81391 4.77198 5.62637 4.95952C5.43883 5.14706 5.33348 5.40141 5.33348 5.66663C5.33348 5.93184 5.43883 6.1862 5.62637 6.37373C5.81391 6.56127 6.06826 6.66663 6.33348 6.66663C6.59869 6.66663 6.85305 6.56127 7.04058 6.37373C7.22812 6.1862 7.33348 5.93184 7.33348 5.66663C7.33348 5.40141 7.22812 5.14706 7.04058 4.95952C6.85305 4.77198 6.59869 4.66663 6.33348 4.66663ZM9.66681 9.33329C9.40159 9.33329 9.14724 9.43865 8.9597 9.62619C8.77217 9.81372 8.66681 10.0681 8.66681 10.3333C8.66681 10.5985 8.77217 10.8529 8.9597 11.0404C9.14724 11.2279 9.40159 11.3333 9.66681 11.3333C9.93203 11.3333 10.1864 11.2279 10.3739 11.0404C10.5615 10.8529 10.6668 10.5985 10.6668 10.3333C10.6668 10.0681 10.5615 9.81372 10.3739 9.62619C10.1864 9.43865 9.93203 9.33329 9.66681 9.33329ZM5.60681 11.3333L11.3335 5.60663L10.3935 4.66663L4.66681 10.3933L5.60681 11.3333Z" fill="#F54748"/>
</g>
<defs>
<clipPath id="clip0_802_5504">
<rect width="16" height="16" fill="white"/>
</clipPath>
</defs>
</svg>
