<svg width="14" height="14" viewBox="0 0 14 14" fill="none" xmlns="http://www.w3.org/2000/svg">
<path d="M7.00003 12.8344C10.2224 12.8344 12.8345 10.2223 12.8345 7.00052C12.8345 3.77818 10.2224 1.16602 7.00003 1.16602C3.77769 1.16602 1.16553 3.77818 1.16553 7.00052C1.16553 10.2223 3.77769 12.8344 7.00003 12.8344ZM7.00003 11.9594C6.34241 11.9695 5.68936 11.8487 5.07888 11.604C4.46839 11.3593 3.91268 10.9957 3.44406 10.5342C2.97545 10.0727 2.60331 9.52265 2.34929 8.91599C2.09528 8.30933 1.96446 7.65821 1.96446 7.00052C1.96446 6.34282 2.09528 5.6917 2.34929 5.08504C2.60331 4.47838 2.97545 3.92831 3.44406 3.46683C3.91268 3.00535 4.46839 2.64169 5.07888 2.39701C5.68936 2.15232 6.34241 2.03151 7.00003 2.0416C8.30598 2.05576 9.55363 2.58449 10.4721 3.51298C11.3906 4.44147 11.9057 5.69478 11.9057 7.00081C11.9057 8.30683 11.3906 9.56014 10.4721 10.4886C9.55363 11.4171 8.30598 11.9453 7.00003 11.9594Z" fill="#F54748"/>
<circle cx="7" cy="7" r="3.5" fill="#F54748"/>
</svg>
