<svg width="32" height="32" viewBox="0 0 32 32" fill="none" xmlns="http://www.w3.org/2000/svg">
<path d="M27.3137 4.68625C24.2917 1.66431 20.2738 0 16 0C11.7262 0 7.70831 1.66431 4.68625 4.68625C1.66431 7.70831 0 11.7262 0 16C0 20.2738 1.66431 24.2917 4.68625 27.3137C7.70831 30.3357 11.7262 32 16 32C20.2738 32 24.2917 30.3357 27.3137 27.3137C30.3357 24.2917 32 20.2738 32 16C32 11.7262 30.3357 7.70831 27.3137 4.68625ZM5.37138 25.3028C3.1105 22.7271 1.875 19.4587 1.875 16C1.875 12.2271 3.34425 8.68 6.01213 6.01213C8.68 3.34425 12.2271 1.875 16 1.875C19.4587 1.875 22.727 3.1105 25.3027 5.37138L21.9212 8.75294C20.2979 7.45019 18.2384 6.66975 16 6.66975C10.8609 6.66975 6.66419 10.782 6.52731 15.8886H14.7856L12.9106 17.7636H6.35063C5.74375 17.7636 5.25 18.2573 5.25 18.8642C5.25 19.4711 5.74375 19.9648 6.35063 19.9648H10.7093L8.83425 21.8398H6.52375V24.1504L5.37138 25.3028ZM16.9375 10.9864C16.9375 11.5041 16.5177 11.9239 16 11.9239C15.4823 11.9239 15.0625 11.5041 15.0625 10.9864C15.0625 10.4686 15.4823 10.0489 16 10.0489C16.5177 10.0489 16.9375 10.4686 16.9375 10.9864ZM14.1646 13.1374C14.1646 13.6552 13.7448 14.0749 13.2271 14.0749C12.7093 14.0749 12.2896 13.6552 12.2896 13.1374C12.2896 12.6197 12.7093 12.1999 13.2271 12.1999C13.7448 12.1999 14.1646 12.6197 14.1646 13.1374ZM25.9879 25.9879C23.32 28.6558 19.7729 30.125 16 30.125C12.5413 30.125 9.273 28.8895 6.69725 26.6286L9.15725 24.1686H25.4762V21.8399H11.4859L13.3609 19.9649H25.6494C26.2563 19.9649 26.75 19.4712 26.75 18.8643C26.75 18.2574 26.2563 17.7637 25.6494 17.7637H15.5622L17.4372 15.8887H25.4727C25.4134 13.676 24.5914 11.6503 23.2612 10.0646L26.6286 6.69725C28.8895 9.27294 30.125 12.5413 30.125 16C30.125 19.7729 28.6558 23.32 25.9879 25.9879Z" fill="#F54748"/>
</svg>
