<svg width="25" height="25" viewBox="0 0 25 25" fill="none" xmlns="http://www.w3.org/2000/svg">
<g clip-path="url(#clip0_899_383)">
<path d="M9.38672 21.8333C10.2151 21.8333 10.8867 21.1617 10.8867 20.3333C10.8867 19.5048 10.2151 18.8333 9.38672 18.8333C8.55829 18.8333 7.88672 19.5048 7.88672 20.3333C7.88672 21.1617 8.55829 21.8333 9.38672 21.8333Z" fill="#1D1D1D"/>
<path d="M18.5 21.8333C19.3284 21.8333 20 21.1617 20 20.3333C20 19.5048 19.3284 18.8333 18.5 18.8333C17.6716 18.8333 17 19.5048 17 20.3333C17 21.1617 17.6716 21.8333 18.5 21.8333Z" fill="#1D1D1D"/>
<path d="M22.5534 4.07991C22.4914 4.00343 22.4132 3.94165 22.3244 3.899C22.2356 3.85635 22.1385 3.83389 22.0401 3.83324H8.16007L8.59341 5.16658H21.1667L19.3867 13.1666H9.38674L6.34007 3.51991C6.30712 3.41755 6.24989 3.32468 6.17328 3.24922C6.09666 3.17377 6.00293 3.11796 5.90007 3.08658L3.16674 2.24658C3.08269 2.22075 2.99438 2.21173 2.90685 2.22003C2.81932 2.22833 2.73428 2.2538 2.65659 2.29496C2.49968 2.37811 2.38223 2.52017 2.33007 2.68991C2.27791 2.85965 2.29532 3.04316 2.37846 3.20006C2.4616 3.35697 2.60367 3.47442 2.77341 3.52658L5.16674 4.25991L8.22674 13.9266L7.13341 14.8199L7.04674 14.9066C6.7763 15.2182 6.62301 15.6145 6.61327 16.027C6.60354 16.4395 6.73797 16.8425 6.99341 17.1666C7.17511 17.3875 7.40601 17.5629 7.66763 17.6787C7.92925 17.7945 8.21434 17.8474 8.50007 17.8332H19.6267C19.8036 17.8332 19.9731 17.763 20.0981 17.638C20.2232 17.513 20.2934 17.3434 20.2934 17.1666C20.2934 16.9898 20.2232 16.8202 20.0981 16.6952C19.9731 16.5701 19.8036 16.4999 19.6267 16.4999H8.39341C8.31664 16.4973 8.24184 16.4749 8.17625 16.4349C8.11065 16.395 8.05647 16.3388 8.01894 16.2717C7.98141 16.2047 7.96179 16.1292 7.96199 16.0523C7.96219 15.9755 7.9822 15.9001 8.02007 15.8332L9.62674 14.4999H19.9201C20.0742 14.5037 20.2248 14.4539 20.3464 14.3591C20.4679 14.2643 20.5529 14.1303 20.5867 13.9799L22.7001 4.64658C22.7203 4.54719 22.7177 4.44448 22.6923 4.34629C22.6668 4.24809 22.6194 4.15698 22.5534 4.07991Z" fill="#1D1D1D"/>
</g>
<defs>
<clipPath id="clip0_899_383">
<rect width="24" height="24" fill="white" transform="translate(0.5 0.5)"/>
</clipPath>
</defs>
</svg>
