<svg width="16" height="17" viewBox="0 0 16 17" fill="none" xmlns="http://www.w3.org/2000/svg">
<path d="M8.55 11.022C8.11667 11.0247 7.69289 10.9782 7.27867 10.8827C6.86444 10.7871 6.508 10.5898 6.20933 10.2907C5.96978 10.0516 5.78533 9.77822 5.656 9.47067C5.52622 9.16311 5.46133 8.84089 5.46133 8.504C5.46133 8.35867 5.47133 8.22044 5.49133 8.08933C5.51089 7.95778 5.54578 7.82489 5.596 7.69067C5.62356 7.60889 5.62089 7.52911 5.588 7.45133C5.55511 7.37356 5.50311 7.31956 5.432 7.28933C5.35867 7.25956 5.28378 7.26178 5.20733 7.296C5.13089 7.33022 5.07889 7.38844 5.05133 7.47067C4.99578 7.63733 4.952 7.80622 4.92 7.97733C4.888 8.148 4.872 8.32222 4.872 8.5C4.872 8.91867 4.95156 9.318 5.11067 9.698C5.27022 10.078 5.49689 10.4149 5.79067 10.7087C6.13378 11.0624 6.54445 11.3013 7.02267 11.4253C7.50089 11.5498 7.98644 11.6131 8.47933 11.6153L7.83733 12.258C7.78 12.3153 7.74911 12.3829 7.74467 12.4607C7.74022 12.5384 7.77111 12.6102 7.83733 12.676C7.90356 12.7418 7.97311 12.7747 8.046 12.7747C8.11889 12.7747 8.18867 12.7418 8.25533 12.676L9.27067 11.6607C9.37822 11.5527 9.432 11.4269 9.432 11.2833C9.432 11.1398 9.37822 11.0142 9.27067 10.9067L8.25533 9.89133C8.19756 9.83356 8.13 9.80267 8.05267 9.79867C7.97489 9.79422 7.90311 9.82511 7.83733 9.89133C7.77156 9.95756 7.73867 10.0271 7.73867 10.1C7.73867 10.1729 7.77156 10.2427 7.83733 10.3093L8.55 11.022ZM7.45933 5.97467C7.89267 5.97467 8.31689 6.02222 8.732 6.11733C9.14756 6.21244 9.50489 6.40956 9.804 6.70867C10.0431 6.94822 10.2276 7.22178 10.3573 7.52933C10.4871 7.83689 10.5518 8.15911 10.5513 8.496C10.5513 8.64133 10.5416 8.77956 10.522 8.91067C10.5024 9.04178 10.4673 9.17444 10.4167 9.30867C10.3896 9.39089 10.3924 9.47156 10.4253 9.55067C10.4582 9.62978 10.51 9.68422 10.5807 9.714C10.6544 9.74378 10.7296 9.74378 10.806 9.714C10.8824 9.68422 10.9342 9.62822 10.9613 9.546C11.0169 9.37933 11.0609 9.20778 11.0933 9.03133C11.1253 8.85489 11.1413 8.67778 11.1413 8.5C11.1413 8.08133 11.0629 7.682 10.906 7.302C10.7491 6.922 10.5224 6.58378 10.226 6.28733C9.88022 5.93311 9.46822 5.69489 8.99 5.57267C8.51222 5.45 8.02667 5.38867 7.53333 5.38867L8.18 4.742C8.23422 4.68467 8.26356 4.61711 8.268 4.53933C8.27244 4.46156 8.24178 4.38978 8.176 4.324C8.11022 4.25822 8.04044 4.22556 7.96667 4.226C7.89289 4.22644 7.82333 4.25911 7.758 4.324L6.74267 5.34C6.63467 5.448 6.58067 5.57378 6.58067 5.71733C6.58067 5.86089 6.63467 5.98644 6.74267 6.094L7.758 7.10933C7.81533 7.16711 7.88289 7.198 7.96067 7.202C8.03844 7.206 8.11022 7.17533 8.176 7.11C8.24178 7.04467 8.27467 6.97489 8.27467 6.90067C8.27467 6.82644 8.24178 6.75689 8.176 6.692L7.45933 5.97467ZM8 14.5C7.17156 14.5 6.39245 14.3422 5.66267 14.0267C4.93289 13.7107 4.298 13.2827 3.758 12.7427C3.21756 12.2022 2.78956 11.5671 2.474 10.8373C2.158 10.1076 2 9.32844 2 8.5C2 7.67156 2.15778 6.89245 2.47333 6.16267C2.78889 5.43289 3.21711 4.798 3.758 4.258C4.29889 3.718 4.93378 3.28978 5.66267 2.97333C6.39289 2.65778 7.172 2.5 8 2.5C8.828 2.5 9.60711 2.65778 10.3373 2.97333C11.0671 3.28933 11.702 3.71756 12.242 4.258C12.7824 4.798 13.2104 5.43289 13.526 6.16267C13.842 6.89289 14 7.672 14 8.5C14 9.328 13.8422 10.1071 13.5267 10.8373C13.2107 11.5671 12.7827 12.202 12.2427 12.742C11.7022 13.2824 11.0671 13.7104 10.3373 14.026C9.60756 14.342 8.82844 14.5 8 14.5ZM8 13.8333C9.48889 13.8333 10.75 13.3167 11.7833 12.2833C12.8167 11.25 13.3333 9.98889 13.3333 8.5C13.3333 7.01111 12.8167 5.75 11.7833 4.71667C10.75 3.68333 9.48889 3.16667 8 3.16667C6.51111 3.16667 5.25 3.68333 4.21667 4.71667C3.18333 5.75 2.66667 7.01111 2.66667 8.5C2.66667 9.98889 3.18333 11.25 4.21667 12.2833C5.25 13.3167 6.51111 13.8333 8 13.8333Z" fill="black"/>
</svg>
