<svg width="14" height="14" viewBox="0 0 14 14" fill="none" xmlns="http://www.w3.org/2000/svg">
<path d="M9.06239 9.88618L7 7.82378L4.93761 9.88618C4.82821 9.99557 4.67984 10.057 4.52513 10.057C4.37042 10.057 4.22204 9.99557 4.11265 9.88618C4.00325 9.77678 3.94179 9.62841 3.94179 9.4737C3.94179 9.31899 4.00325 9.17062 4.11265 9.06122L6.17504 6.99883L4.11265 4.93643C4.00325 4.82704 3.94179 4.67866 3.94179 4.52395C3.94179 4.36924 4.00325 4.22087 4.11265 4.11147C4.22204 4.00208 4.37042 3.94062 4.52513 3.94062C4.67984 3.94062 4.82821 4.00208 4.93761 4.11147L7 6.17387L9.06239 4.11147C9.17179 4.00208 9.32016 3.94062 9.47487 3.94062C9.62958 3.94062 9.77796 4.00208 9.88735 4.11147C9.99675 4.22087 10.0582 4.36924 10.0582 4.52395C10.0582 4.67866 9.99675 4.82704 9.88735 4.93643L7.82496 6.99883L9.88735 9.06122C9.99675 9.17062 10.0582 9.31899 10.0582 9.4737C10.0582 9.62841 9.99675 9.77678 9.88735 9.88618C9.77796 9.99557 9.62958 10.057 9.47487 10.057C9.32016 10.057 9.17179 9.99558 9.06239 9.88618Z" fill="#1D1D1D"/>
</svg>
