<svg width="20" height="21" viewBox="0 0 20 21" fill="none" xmlns="http://www.w3.org/2000/svg">
<path d="M14 11.62V14.02C14 17.22 12.72 18.5 9.52002 18.5H6.48001C3.28 18.5 2 17.22 2 14.02V10.98C2 7.78 3.28 6.5 6.48001 6.5H8.88002M14 11.62H11.44C9.52 11.62 8.88 10.98 8.88 9.06L8.88002 6.5M14 11.62L8.88002 6.5M9.68 2.5H12.88M6.00001 4.9C6.00001 3.572 7.07201 2.5 8.40002 2.5H10.496M18 7.3V12.252C18 13.492 16.992 14.5 15.752 14.5M18 7.3H15.6C13.8 7.3 13.2 6.7 13.2 4.9V2.5L18 7.3Z" stroke="white" stroke-width="1.5" stroke-linecap="round" stroke-linejoin="round"/>
</svg>
