<svg width="16" height="16" viewBox="0 0 16 16" fill="none" xmlns="http://www.w3.org/2000/svg">
<path d="M8.03867 13.3331C6.55689 13.3331 5.29756 12.8147 4.26067 11.7778C3.22378 10.7409 2.70534 9.48158 2.70534 7.9998C2.70534 6.64914 3.14534 5.47802 4.02534 4.48647C4.90534 3.49491 5.99512 2.90958 7.29467 2.73047C7.33067 2.73047 7.366 2.7318 7.40067 2.73447C7.43534 2.73714 7.46934 2.74091 7.50267 2.7458C7.27778 3.05958 7.09978 3.40847 6.96867 3.79247C6.83756 4.17647 6.772 4.57891 6.772 4.9998C6.772 6.18514 7.18667 7.19247 8.016 8.0218C8.84534 8.85113 9.85289 9.26602 11.0387 9.26647C11.4613 9.26647 11.8642 9.20091 12.2473 9.0698C12.6304 8.93869 12.9744 8.76069 13.2793 8.5358C13.2847 8.56914 13.2884 8.60314 13.2907 8.6378C13.2929 8.67247 13.2942 8.7078 13.2947 8.7438C13.124 10.0429 12.5429 11.1325 11.5513 12.0125C10.5598 12.8925 9.38934 13.3327 8.03867 13.3331ZM8.038 12.6665C9.01578 12.6665 9.89356 12.3969 10.6713 11.8578C11.4491 11.3187 12.0158 10.616 12.3713 9.7498C12.1491 9.80536 11.9269 9.8498 11.7047 9.88313C11.4824 9.91647 11.2602 9.93313 11.038 9.93313C9.67178 9.93313 8.508 9.45269 7.54667 8.4918C6.58534 7.53091 6.10489 6.36691 6.10534 4.9998C6.10534 4.77758 6.122 4.55536 6.15534 4.33314C6.18867 4.11091 6.23312 3.88869 6.28867 3.66647C5.422 4.02202 4.71912 4.58869 4.18 5.36647C3.64089 6.14425 3.37156 7.02202 3.372 7.9998C3.372 9.28869 3.82756 10.3887 4.73867 11.2998C5.64978 12.2109 6.74912 12.6665 8.038 12.6665Z" fill="#444444"/>
</svg>
