<svg width="16" height="16" viewBox="0 0 16 16" fill="none" xmlns="http://www.w3.org/2000/svg">
<path d="M6.66659 3.33333H9.33325C9.33325 2.97971 9.19278 2.64057 8.94273 2.39052C8.69268 2.14048 8.35354 2 7.99992 2C7.6463 2 7.30716 2.14048 7.05711 2.39052C6.80706 2.64057 6.66659 2.97971 6.66659 3.33333ZM5.66659 3.33333C5.66659 3.02692 5.72694 2.7235 5.8442 2.44041C5.96146 2.15731 6.13333 1.90009 6.35 1.68342C6.56667 1.46675 6.8239 1.29488 7.10699 1.17761C7.39008 1.06035 7.6935 1 7.99992 1C8.30634 1 8.60975 1.06035 8.89285 1.17761C9.17594 1.29488 9.43316 1.46675 9.64983 1.68342C9.8665 1.90009 10.0384 2.15731 10.1556 2.44041C10.2729 2.7235 10.3333 3.02692 10.3333 3.33333H14.1666C14.2992 3.33333 14.4264 3.38601 14.5201 3.47978C14.6139 3.57355 14.6666 3.70073 14.6666 3.83333C14.6666 3.96594 14.6139 4.09312 14.5201 4.18689C14.4264 4.28065 14.2992 4.33333 14.1666 4.33333H13.2866L12.5066 12.4073C12.4468 13.026 12.1586 13.6002 11.6984 14.0179C11.2381 14.4356 10.6388 14.6669 10.0173 14.6667H5.98259C5.36116 14.6667 4.76199 14.4354 4.30188 14.0177C3.84178 13.6 3.55374 13.0259 3.49392 12.4073L2.71325 4.33333H1.83325C1.70064 4.33333 1.57347 4.28065 1.4797 4.18689C1.38593 4.09312 1.33325 3.96594 1.33325 3.83333C1.33325 3.70073 1.38593 3.57355 1.4797 3.47978C1.57347 3.38601 1.70064 3.33333 1.83325 3.33333H5.66659ZM6.99992 6.5C6.99992 6.36739 6.94724 6.24022 6.85347 6.14645C6.7597 6.05268 6.63253 6 6.49992 6C6.36731 6 6.24013 6.05268 6.14637 6.14645C6.0526 6.24022 5.99992 6.36739 5.99992 6.5V11.5C5.99992 11.6326 6.0526 11.7598 6.14637 11.8536C6.24013 11.9473 6.36731 12 6.49992 12C6.63253 12 6.7597 11.9473 6.85347 11.8536C6.94724 11.7598 6.99992 11.6326 6.99992 11.5V6.5ZM9.49992 6C9.63253 6 9.7597 6.05268 9.85347 6.14645C9.94724 6.24022 9.99992 6.36739 9.99992 6.5V11.5C9.99992 11.6326 9.94724 11.7598 9.85347 11.8536C9.7597 11.9473 9.63253 12 9.49992 12C9.36731 12 9.24013 11.9473 9.14637 11.8536C9.0526 11.7598 8.99992 11.6326 8.99992 11.5V6.5C8.99992 6.36739 9.0526 6.24022 9.14637 6.14645C9.24013 6.05268 9.36731 6 9.49992 6ZM4.48925 12.3113C4.52521 12.6824 4.69808 13.0268 4.97416 13.2774C5.25025 13.528 5.60975 13.6667 5.98259 13.6667H10.0173C10.3901 13.6667 10.7496 13.528 11.0257 13.2774C11.3018 13.0268 11.4746 12.6824 11.5106 12.3113L12.2826 4.33333H3.71725L4.48925 12.3113Z" fill="#1D1D1D"/>
</svg>
