<svg width="26" height="28" viewBox="0 0 26 28" fill="none" xmlns="http://www.w3.org/2000/svg">
<path d="M10.5 4.5V5H15.5V4.5C15.5 3.83696 15.2366 3.20107 14.7678 2.73223C14.2989 2.26339 13.663 2 13 2C12.337 2 11.7011 2.26339 11.2322 2.73223C10.7634 3.20107 10.5 3.83696 10.5 4.5ZM8.5 5V4.5C8.5 3.30653 8.97411 2.16193 9.81802 1.31802C10.6619 0.474106 11.8065 0 13 0C14.1935 0 15.3381 0.474106 16.182 1.31802C17.0259 2.16193 17.5 3.30653 17.5 4.5V5H25C25.2652 5 25.5196 5.10536 25.7071 5.29289C25.8946 5.48043 26 5.73478 26 6C26 6.26522 25.8946 6.51957 25.7071 6.70711C25.5196 6.89464 25.2652 7 25 7H23.492L21.6 23.568C21.4605 24.7882 20.8768 25.9143 19.9601 26.7317C19.0435 27.5491 17.8581 28.0006 16.63 28H9.37C8.14186 28.0006 6.95647 27.5491 6.03985 26.7317C5.12323 25.9143 4.53952 24.7882 4.4 23.568L2.508 7H1C0.734784 7 0.48043 6.89464 0.292893 6.70711C0.105357 6.51957 0 6.26522 0 6C0 5.73478 0.105357 5.48043 0.292893 5.29289C0.48043 5.10536 0.734784 5 1 5H8.5ZM6.388 23.34C6.47149 24.0719 6.82135 24.7475 7.37092 25.2381C7.92049 25.7286 8.63134 25.9998 9.368 26H16.631C17.3677 25.9998 18.0785 25.7286 18.6281 25.2381C19.1776 24.7475 19.5275 24.0719 19.611 23.34L21.48 7H4.521L6.388 23.34ZM10 10.5C10.2652 10.5 10.5196 10.6054 10.7071 10.7929C10.8946 10.9804 11 11.2348 11 11.5V21.5C11 21.7652 10.8946 22.0196 10.7071 22.2071C10.5196 22.3946 10.2652 22.5 10 22.5C9.73478 22.5 9.48043 22.3946 9.29289 22.2071C9.10536 22.0196 9 21.7652 9 21.5V11.5C9 11.2348 9.10536 10.9804 9.29289 10.7929C9.48043 10.6054 9.73478 10.5 10 10.5ZM17 11.5C17 11.2348 16.8946 10.9804 16.7071 10.7929C16.5196 10.6054 16.2652 10.5 16 10.5C15.7348 10.5 15.4804 10.6054 15.2929 10.7929C15.1054 10.9804 15 11.2348 15 11.5V21.5C15 21.7652 15.1054 22.0196 15.2929 22.2071C15.4804 22.3946 15.7348 22.5 16 22.5C16.2652 22.5 16.5196 22.3946 16.7071 22.2071C16.8946 22.0196 17 21.7652 17 21.5V11.5Z" fill="#F54748"/>
</svg>
