<svg width="16" height="16" viewBox="0 0 16 16" fill="none" xmlns="http://www.w3.org/2000/svg">
<path d="M10.862 1.52869C10.987 1.40371 11.1566 1.3335 11.3333 1.3335C11.5101 1.3335 11.6796 1.40371 11.8047 1.52869L14.4713 4.19535C14.5963 4.32037 14.6665 4.48991 14.6665 4.66669C14.6665 4.84346 14.5963 5.013 14.4713 5.13802L5.80467 13.8047C5.67967 13.9297 5.51013 14 5.33333 14H2.66667C2.48986 14 2.32029 13.9298 2.19526 13.8048C2.07024 13.6797 2 13.5102 2 13.3334V10.6667C2.00004 10.4899 2.0703 10.3203 2.19533 10.1954L8.862 3.52869L10.862 1.52869ZM9.33333 4.94269L3.33333 10.9427V12.6667H5.05733L11.0573 6.66669L9.33333 4.94269ZM12 5.72402L13.0573 4.66669L11.3333 2.94269L10.276 4.00002L12 5.72402Z" fill="#939393"/>
</svg>
