<svg width="16" height="16" viewBox="0 0 16 16" fill="none" xmlns="http://www.w3.org/2000/svg">
<path d="M6.66634 3.33333H9.33301C9.33301 2.97971 9.19253 2.64057 8.94248 2.39052C8.69244 2.14048 8.3533 2 7.99967 2C7.64605 2 7.30691 2.14048 7.05687 2.39052C6.80682 2.64057 6.66634 2.97971 6.66634 3.33333ZM5.66634 3.33333C5.66634 3.02692 5.72669 2.7235 5.84396 2.44041C5.96122 2.15731 6.13309 1.90009 6.34976 1.68342C6.56643 1.46675 6.82365 1.29488 7.10675 1.17761C7.38984 1.06035 7.69326 1 7.99967 1C8.30609 1 8.60951 1.06035 8.8926 1.17761C9.1757 1.29488 9.43292 1.46675 9.64959 1.68342C9.86626 1.90009 10.0381 2.15731 10.1554 2.44041C10.2727 2.7235 10.333 3.02692 10.333 3.33333H14.1663C14.299 3.33333 14.4261 3.38601 14.5199 3.47978C14.6137 3.57355 14.6663 3.70073 14.6663 3.83333C14.6663 3.96594 14.6137 4.09312 14.5199 4.18689C14.4261 4.28065 14.299 4.33333 14.1663 4.33333H13.2863L12.5063 12.4073C12.4465 13.026 12.1584 13.6002 11.6981 14.0179C11.2379 14.4356 10.6385 14.6669 10.017 14.6667H5.98234C5.36092 14.6667 4.76174 14.4354 4.30164 14.0177C3.84154 13.6 3.5535 13.0259 3.49367 12.4073L2.71301 4.33333H1.83301C1.7004 4.33333 1.57322 4.28065 1.47945 4.18689C1.38569 4.09312 1.33301 3.96594 1.33301 3.83333C1.33301 3.70073 1.38569 3.57355 1.47945 3.47978C1.57322 3.38601 1.7004 3.33333 1.83301 3.33333H5.66634ZM6.99967 6.5C6.99967 6.36739 6.947 6.24022 6.85323 6.14645C6.75946 6.05268 6.63228 6 6.49967 6C6.36707 6 6.23989 6.05268 6.14612 6.14645C6.05235 6.24022 5.99967 6.36739 5.99967 6.5V11.5C5.99967 11.6326 6.05235 11.7598 6.14612 11.8536C6.23989 11.9473 6.36707 12 6.49967 12C6.63228 12 6.75946 11.9473 6.85323 11.8536C6.947 11.7598 6.99967 11.6326 6.99967 11.5V6.5ZM9.49967 6C9.63228 6 9.75946 6.05268 9.85323 6.14645C9.947 6.24022 9.99967 6.36739 9.99967 6.5V11.5C9.99967 11.6326 9.947 11.7598 9.85323 11.8536C9.75946 11.9473 9.63228 12 9.49967 12C9.36707 12 9.23989 11.9473 9.14612 11.8536C9.05235 11.7598 8.99967 11.6326 8.99967 11.5V6.5C8.99967 6.36739 9.05235 6.24022 9.14612 6.14645C9.23989 6.05268 9.36707 6 9.49967 6ZM4.48901 12.3113C4.52497 12.6824 4.69784 13.0268 4.97392 13.2774C5.25 13.528 5.60951 13.6667 5.98234 13.6667H10.017C10.3898 13.6667 10.7493 13.528 11.0254 13.2774C11.3015 13.0268 11.4744 12.6824 11.5103 12.3113L12.2823 4.33333H3.71701L4.48901 12.3113Z" fill="#616161"/>
</svg>
