<svg width="20" height="20" viewBox="0 0 20 20" fill="none" xmlns="http://www.w3.org/2000/svg">
<path d="M9.69491 0.805054C11.9294 0.805054 13.9723 1.60834 15.5662 2.93678L13.5216 4.98147C12.4608 4.1697 11.136 3.68302 9.69491 3.68302C6.20636 3.68302 3.37796 6.51141 3.37796 9.99997C3.37796 13.4885 6.20636 16.3169 9.69491 16.3169C12.4462 16.3169 14.7779 14.5557 15.6453 12.1058L15.8815 11.4389L15.174 11.4389L10.1949 11.4389L10.1949 8.56098L17.9203 8.56098L17.9203 8.60122L18.4203 8.60122L18.7817 8.60122C18.8521 9.05801 18.8898 9.52492 18.8898 9.99997C18.8898 15.0778 14.7728 19.1949 9.69491 19.1949C4.61704 19.1949 0.5 15.0778 0.5 9.99997C0.5 4.92209 4.61704 0.805054 9.69491 0.805054Z" fill="#FFC107" stroke="url(#paint0_linear_62_728)"/>
<path d="M15.4225 17.1794L13.1675 15.2712C12.1406 15.9524 10.9329 16.3179 9.69459 16.3169M15.4225 17.1794L9.69498 15.8169M15.4225 17.1794C13.8501 18.4377 11.8628 19.1948 9.69498 19.1948C6.27046 19.1948 3.28818 17.3183 1.70589 14.5376M9.69459 16.3169L9.69498 15.8169M9.69459 16.3169C9.69472 16.3169 9.69485 16.3169 9.69498 16.3169L9.69498 15.8169M9.69459 16.3169C7.19422 16.3167 5.04017 14.8616 4.01734 12.7567M9.69498 15.8169C7.35686 15.8169 5.34589 14.4345 4.42255 12.4445L4.01734 12.7567M4.01734 12.7567C3.94247 12.6027 3.87366 12.4451 3.81121 12.2844L4.2256 11.9651M4.01734 12.7567L1.70589 14.5376M1.70589 14.5376C1.63774 14.4179 1.57219 14.2964 1.50932 14.1734L1.06409 14.4009L1.36925 14.797L1.70589 14.5376Z" fill="#4CAF50" stroke="url(#paint1_linear_62_728)"/>
<path d="M16.2537 16.4629C16.2329 16.4834 16.2128 16.5029 16.1935 16.5215L13.9707 14.6405C14.7237 13.9462 15.2996 13.0774 15.6451 12.1066L15.8827 11.439L15.174 11.439L10.1949 11.439L10.1949 8.56104L17.9204 8.56104L17.9204 8.60127L18.4204 8.60127L18.7818 8.60127C18.8521 9.05806 18.8899 9.52497 18.8899 10C18.8899 12.3011 18.0822 14.0475 17.2994 15.1977C16.9077 15.7732 16.5235 16.1972 16.2537 16.4629Z" fill="#1976D2" stroke="url(#paint2_linear_62_728)"/>
<path d="M15.5662 2.93678L13.5215 4.98147C12.4607 4.1697 11.136 3.68302 9.69489 3.68302C7.26712 3.68302 5.16385 5.05319 4.10696 7.05959L1.76936 5.34526C3.36804 2.62843 6.31763 0.805054 9.69489 0.805054C11.9294 0.805054 13.9723 1.60834 15.5662 2.93678Z" fill="#FF3D00" stroke="url(#paint3_linear_62_728)"/>
<defs>
<linearGradient id="paint0_linear_62_728" x1="9.69491" y1="0.305054" x2="9.69491" y2="19.6949" gradientUnits="userSpaceOnUse">
<stop stop-color="white" stop-opacity="0.15"/>
<stop offset="1" stop-color="white" stop-opacity="0.03"/>
</linearGradient>
<linearGradient id="paint1_linear_62_728" x1="8.62951" y1="11.9651" x2="8.62951" y2="19.6948" gradientUnits="userSpaceOnUse">
<stop stop-color="white" stop-opacity="0.15"/>
<stop offset="1" stop-color="white" stop-opacity="0.03"/>
</linearGradient>
<linearGradient id="paint2_linear_62_728" x1="14.5424" y1="8.06104" x2="14.5424" y2="17.1879" gradientUnits="userSpaceOnUse">
<stop stop-color="white" stop-opacity="0.15"/>
<stop offset="1" stop-color="white" stop-opacity="0.03"/>
</linearGradient>
<linearGradient id="paint3_linear_62_728" x1="8.70697" y1="0.305054" x2="8.70697" y2="7.82346" gradientUnits="userSpaceOnUse">
<stop stop-color="white" stop-opacity="0.15"/>
<stop offset="1" stop-color="white" stop-opacity="0.03"/>
</linearGradient>
</defs>
</svg>
