<svg width="18" height="20" viewBox="0 0 18 20" fill="none" xmlns="http://www.w3.org/2000/svg">
<path d="M8.03 1.08991C8.30108 0.860352 8.64478 0.734375 9 0.734375C9.35522 0.734375 9.69892 0.860352 9.97 1.08991L17.47 7.45291C17.6361 7.5937 17.7695 7.76896 17.861 7.96652C17.9526 8.16407 18 8.37918 18 8.59691V17.9999C18 18.3977 17.842 18.7793 17.5607 19.0606C17.2794 19.3419 16.8978 19.4999 16.5 19.4999H10.75C10.5511 19.4999 10.3603 19.4209 10.2197 19.2802C10.079 19.1396 10 18.9488 10 18.7499V12.4999H8V18.7499C8 18.9488 7.92098 19.1396 7.78033 19.2802C7.63968 19.4209 7.44891 19.4999 7.25 19.4999H1.5C1.10218 19.4999 0.720644 19.3419 0.43934 19.0606C0.158035 18.7793 0 18.3977 0 17.9999V8.59691C0 8.15691 0.194 7.73791 0.53 7.45291L8.03 1.08991ZM9 2.23391L1.5 8.59691V17.9999H6.5V11.7499C6.5 11.551 6.57902 11.3602 6.71967 11.2196C6.86032 11.0789 7.05109 10.9999 7.25 10.9999H10.75C10.9489 10.9999 11.1397 11.0789 11.2803 11.2196C11.421 11.3602 11.5 11.551 11.5 11.7499V17.9999H16.5V8.59691L9 2.23391Z" fill="#1D1D1D"/>
</svg>
