<svg width="16" height="16" viewBox="0 0 16 16" fill="none" xmlns="http://www.w3.org/2000/svg">
<path d="M2.66699 7.33325V12.6666C2.66699 13.0202 2.80747 13.3593 3.05752 13.6094C3.30756 13.8594 3.6467 13.9999 4.00033 13.9999H12.0003C12.3539 13.9999 12.6931 13.8594 12.9431 13.6094C13.1932 13.3593 13.3337 13.0202 13.3337 12.6666V7.33325" stroke="#616161" stroke-linecap="round" stroke-linejoin="round"/>
<path d="M8 3.66659C8 3.04775 7.75417 2.45425 7.31658 2.01667C6.879 1.57908 6.28551 1.33325 5.66667 1.33325C5.22464 1.33325 4.80072 1.50885 4.48816 1.82141C4.17559 2.13397 4 2.55789 4 2.99992C4 3.44195 4.17559 3.86587 4.48816 4.17843C4.80072 4.49099 5.22464 4.66659 5.66667 4.66659H8M8 3.66659V4.66659M8 3.66659C8 3.04775 8.24583 2.45425 8.68342 2.01667C9.121 1.57908 9.7145 1.33325 10.3333 1.33325C10.7754 1.33325 11.1993 1.50885 11.5118 1.82141C11.8244 2.13397 12 2.55789 12 2.99992C12 3.21879 11.9569 3.43551 11.8731 3.63772C11.7894 3.83993 11.6666 4.02367 11.5118 4.17843C11.3571 4.33319 11.1733 4.45596 10.9711 4.53972C10.7689 4.62348 10.5522 4.66659 10.3333 4.66659H8" stroke="#616161" stroke-linejoin="round"/>
<path d="M8 7.33317V13.9998M2 4.6665H14V7.33317H2V4.6665Z" stroke="#616161" stroke-linecap="round" stroke-linejoin="round"/>
</svg>
