<svg width="14" height="14" viewBox="0 0 14 14" fill="none" xmlns="http://www.w3.org/2000/svg">
<path d="M7 7.875C6.56735 7.875 6.14442 7.74671 5.78469 7.50634C5.42496 7.26598 5.14458 6.92433 4.97901 6.52462C4.81345 6.12491 4.77013 5.68507 4.85453 5.26074C4.93894 4.83641 5.14728 4.44663 5.45321 4.14071C5.75913 3.83478 6.14891 3.62644 6.57324 3.54203C6.99757 3.45763 7.43741 3.50095 7.83712 3.66651C8.23683 3.83208 8.57848 4.11246 8.81884 4.47219C9.05921 4.83192 9.1875 5.25485 9.1875 5.6875C9.18681 6.26745 8.95612 6.82344 8.54603 7.23353C8.13594 7.64362 7.57995 7.87431 7 7.875ZM7 4.375C6.74041 4.375 6.48665 4.45198 6.27082 4.5962C6.05498 4.74042 5.88675 4.9454 5.78741 5.18523C5.68807 5.42506 5.66208 5.68896 5.71272 5.94356C5.76336 6.19816 5.88837 6.43202 6.07192 6.61558C6.25548 6.79914 6.48935 6.92414 6.74395 6.97478C6.99855 7.02542 7.26244 6.99943 7.50227 6.90009C7.7421 6.80075 7.94709 6.63253 8.09131 6.41669C8.23552 6.20085 8.3125 5.94709 8.3125 5.6875C8.31215 5.33951 8.17376 5.00587 7.9277 4.75981C7.68163 4.51374 7.34799 4.37535 7 4.375Z" fill="#616161"/>
<path d="M7 13.125L3.30925 8.77231C3.25797 8.70696 3.20722 8.64118 3.157 8.575C2.52687 7.74436 2.18633 6.7301 2.1875 5.6875C2.1875 4.41115 2.69453 3.18707 3.59705 2.28455C4.49957 1.38203 5.72365 0.875 7 0.875C8.27636 0.875 9.50044 1.38203 10.403 2.28455C11.3055 3.18707 11.8125 4.41115 11.8125 5.6875C11.8135 6.7296 11.4731 7.74335 10.8434 8.57369L10.843 8.575C10.843 8.575 10.7118 8.74738 10.6921 8.77056L7 13.125ZM3.85569 8.04781C3.85569 8.04781 3.95763 8.18256 3.98082 8.21144L7 11.7723L10.0231 8.20662C10.0424 8.18256 10.1448 8.04694 10.1452 8.0465C10.6602 7.368 10.9385 6.53933 10.9375 5.6875C10.9375 4.64321 10.5227 3.64169 9.78424 2.90327C9.04581 2.16484 8.04429 1.75 7 1.75C5.95571 1.75 4.95419 2.16484 4.21577 2.90327C3.47735 3.64169 3.0625 4.64321 3.0625 5.6875C3.06142 6.53988 3.34007 7.36907 3.85569 8.04781Z" fill="#616161"/>
</svg>
