<svg width="16" height="17" viewBox="0 0 16 17" fill="none" xmlns="http://www.w3.org/2000/svg">
<path d="M3 15.5H9C9.26522 15.5 9.51957 15.3946 9.70711 15.2071C9.89464 15.0196 10 14.7652 10 14.5V13H9V14.5H3V2.5H9V4H10V2.5C10 2.23478 9.89464 1.98043 9.70711 1.79289C9.51957 1.60536 9.26522 1.5 9 1.5H3C2.73478 1.5 2.48043 1.60536 2.29289 1.79289C2.10536 1.98043 2 2.23478 2 2.5V14.5C2 14.7652 2.10536 15.0196 2.29289 15.2071C2.48043 15.3946 2.73478 15.5 3 15.5Z" fill="#1D1D1D"/>
<path d="M10.293 10.793L12.086 9H5V8H12.086L10.293 6.207L11 5.5L14 8.5L11 11.5L10.293 10.793Z" fill="#1D1D1D"/>
</svg>
