<svg width="16" height="16" viewBox="0 0 16 16" fill="none" xmlns="http://www.w3.org/2000/svg">
<path d="M11.581 13.2181L13.4743 11.3541L13.057 10.9361L11.581 12.3914L10.9443 11.7414L10.5263 12.1627L11.581 13.2181ZM4.51366 5.82075H11.4883V5.15408H4.51299L4.51366 5.82075ZM12.0003 14.7441C11.2577 14.7441 10.6277 14.4852 10.1103 13.9674C9.59255 13.4501 9.33366 12.8201 9.33366 12.0774C9.33366 11.3347 9.59255 10.7045 10.1103 10.1867C10.6281 9.66897 11.2581 9.4103 12.0003 9.41075C12.7425 9.41119 13.3728 9.66986 13.891 10.1867C14.4092 10.7036 14.6679 11.3339 14.667 12.0774C14.667 12.8196 14.4083 13.4496 13.891 13.9674C13.3728 14.4852 12.7425 14.7441 12.0003 14.7441ZM2.66699 13.8461V3.74408C2.66699 3.44541 2.77188 3.19119 2.98166 2.98141C3.19144 2.77164 3.44566 2.66675 3.74433 2.66675H12.257C12.5548 2.66675 12.8088 2.77164 13.019 2.98141C13.2288 3.19119 13.3337 3.44541 13.3337 3.74408V7.70675C13.2252 7.66675 13.1177 7.63253 13.011 7.60408C12.9039 7.57564 12.7892 7.55341 12.667 7.53741V3.74408C12.667 3.64141 12.6243 3.54719 12.539 3.46141C12.4537 3.37564 12.3594 3.33297 12.2563 3.33341H3.74433C3.64166 3.33341 3.54744 3.37608 3.46166 3.46141C3.37588 3.54675 3.33321 3.64097 3.33366 3.74408V12.7001H7.56299C7.59321 12.8823 7.63233 13.0605 7.68033 13.2347C7.72877 13.409 7.7961 13.5752 7.88233 13.7334L7.85966 13.7561L7.10299 13.2054L6.20566 13.8461L5.30833 13.2054L4.41099 13.8461L3.51299 13.2054L2.66699 13.8461ZM4.51366 10.8461H7.65299C7.67788 10.7239 7.70855 10.6094 7.74499 10.5027C7.78144 10.3961 7.8241 10.2883 7.87299 10.1794H4.51366V10.8461ZM4.51366 8.33341H9.38699C9.60477 8.16141 9.8381 8.01808 10.087 7.90341C10.3359 7.7883 10.6019 7.70941 10.885 7.66675H4.51299L4.51366 8.33341Z" fill="#616161"/>
</svg>
