<svg width="21" height="4" viewBox="0 0 21 4" fill="none" xmlns="http://www.w3.org/2000/svg">
<path d="M4 2C4 2.82843 3.32843 3.5 2.5 3.5C1.67157 3.5 1 2.82843 1 2C1 1.17157 1.67157 0.5 2.5 0.5C3.32843 0.5 4 1.17157 4 2ZM12 2C12 2.82843 11.3284 3.5 10.5 3.5C9.67157 3.5 9 2.82843 9 2C9 1.17157 9.67157 0.5 10.5 0.5C11.3284 0.5 12 1.17157 12 2ZM20 2C20 2.82843 19.3284 3.5 18.5 3.5C17.6716 3.5 17 2.82843 17 2C17 1.17157 17.6716 0.5 18.5 0.5C19.3284 0.5 20 1.17157 20 2Z" fill="white" stroke="white"/>
</svg>
