<svg width="24" height="24" viewBox="0 0 24 24" fill="none" xmlns="http://www.w3.org/2000/svg">
<path d="M11.9997 0C5.24085 0 0 4.95286 0 11.6397C0 15.1376 1.43396 18.1615 3.76789 20.2494C3.96289 20.4234 4.08289 20.6694 4.08889 20.9334L4.15488 23.0694C4.15969 23.2265 4.20302 23.3801 4.28108 23.5166C4.35914 23.6531 4.46952 23.7683 4.60254 23.8521C4.73555 23.936 4.88713 23.9859 5.04394 23.9974C5.20074 24.009 5.35799 23.9818 5.50185 23.9183L7.88378 22.8684C8.08477 22.7784 8.31277 22.7634 8.52576 22.8204C9.62073 23.1204 10.7847 23.2824 11.9997 23.2824C18.7585 23.2824 23.9993 18.3295 23.9993 11.6427C23.9993 4.95586 18.7585 0 11.9997 0Z" fill="url(#paint0_radial_203_9833)"/>
<path d="M4.79413 15.0444L8.31903 9.45257C8.45163 9.24204 8.62644 9.06129 8.83242 8.92172C9.0384 8.78216 9.27108 8.68682 9.51577 8.64171C9.76046 8.59661 10.0118 8.60273 10.254 8.65967C10.4962 8.71662 10.724 8.82317 10.923 8.97258L13.7279 11.0755C13.8531 11.1693 14.0054 11.2197 14.1619 11.2191C14.3183 11.2186 14.4703 11.1671 14.5949 11.0725L18.3808 8.1986C18.8847 7.81461 19.5447 8.4206 19.2087 8.95758L15.6808 14.5464C15.5482 14.757 15.3734 14.9377 15.1674 15.0773C14.9615 15.2168 14.7288 15.3122 14.4841 15.3573C14.2394 15.4024 13.988 15.3963 13.7458 15.3393C13.5036 15.2824 13.2758 15.1758 13.0769 15.0264L10.272 12.9235C10.1468 12.8297 9.99441 12.7793 9.83799 12.7798C9.68156 12.7804 9.52957 12.8319 9.405 12.9265L5.61911 15.8004C5.11512 16.1844 4.45514 15.5814 4.79413 15.0444Z" fill="white"/>
<defs>
<radialGradient id="paint0_radial_203_9833" cx="0" cy="0" r="1" gradientUnits="userSpaceOnUse" gradientTransform="translate(4.01989 23.9993) scale(26.3993 26.3993)">
<stop stop-color="#0099FF"/>
<stop offset="0.6" stop-color="#A033FF"/>
<stop offset="0.9" stop-color="#FF5280"/>
<stop offset="1" stop-color="#FF7061"/>
</radialGradient>
</defs>
</svg>
