<svg width="16" height="16" viewBox="0 0 16 16" fill="none" xmlns="http://www.w3.org/2000/svg">
<g clip-path="url(#clip0_551_5679)">
<path fill-rule="evenodd" clip-rule="evenodd" d="M3.99967 4.66658C3.99967 3.78253 4.35086 2.93468 4.97599 2.30956C5.60111 1.68444 6.44895 1.33325 7.33301 1.33325C8.21706 1.33325 9.06491 1.68444 9.69003 2.30956C10.3152 2.93468 10.6663 3.78253 10.6663 4.66658C10.6663 5.55064 10.3152 6.39849 9.69003 7.02361C9.06491 7.64873 8.21706 7.99992 7.33301 7.99992C6.44895 7.99992 5.60111 7.64873 4.97599 7.02361C4.35086 6.39849 3.99967 5.55064 3.99967 4.66658ZM7.33301 2.66659C7.07036 2.66659 6.81029 2.71832 6.56764 2.81883C6.32499 2.91934 6.10451 3.06665 5.91879 3.25237C5.73308 3.43809 5.58576 3.65857 5.48525 3.90122C5.38474 4.14387 5.33301 4.40394 5.33301 4.66658C5.33301 4.92923 5.38474 5.1893 5.48525 5.43195C5.58576 5.6746 5.73308 5.89508 5.91879 6.0808C6.10451 6.26652 6.32499 6.41384 6.56764 6.51434C6.81029 6.61485 7.07036 6.66658 7.33301 6.66658C7.86344 6.66658 8.37215 6.45587 8.74722 6.0808C9.12229 5.70573 9.33301 5.19702 9.33301 4.66658C9.33301 4.13615 9.12229 3.62744 8.74722 3.25237C8.37215 2.8773 7.86344 2.66659 7.33301 2.66659ZM2.94167 11.7339C2.72634 12.0073 2.66634 12.2139 2.66634 12.3333C2.66634 12.4119 2.68967 12.4879 2.80301 12.5893C2.93434 12.7066 3.16967 12.8359 3.54301 12.9513C4.28967 13.1819 5.38034 13.2986 6.68034 13.3266C6.76789 13.3284 6.85422 13.3475 6.9344 13.3827C7.01458 13.4179 7.08704 13.4685 7.14765 13.5317C7.20825 13.595 7.25581 13.6695 7.28762 13.7511C7.31942 13.8327 7.33485 13.9197 7.33301 14.0073C7.33117 14.0948 7.31211 14.1811 7.2769 14.2613C7.2417 14.3415 7.19105 14.4139 7.12785 14.4746C7.06464 14.5352 6.99012 14.5827 6.90853 14.6145C6.82694 14.6463 6.73989 14.6618 6.65234 14.6599C5.32101 14.6313 4.07901 14.5126 3.14967 14.2253C2.68567 14.0813 2.24701 13.8806 1.91501 13.5839C1.56434 13.2706 1.33301 12.8493 1.33301 12.3333C1.33301 11.8086 1.57167 11.3179 1.89567 10.9073C2.22501 10.4906 2.68034 10.1073 3.21434 9.78058C4.28301 9.12992 5.73634 8.66658 7.33301 8.66658C7.63123 8.66658 7.92367 8.68214 8.21034 8.71325C8.38618 8.7319 8.54741 8.81965 8.65855 8.95717C8.7697 9.0947 8.82166 9.27075 8.80301 9.44658C8.78435 9.62242 8.69661 9.78365 8.55909 9.8948C8.42156 10.0059 8.24551 10.0579 8.06967 10.0393C7.82923 10.013 7.58367 9.99992 7.33301 9.99992C5.98434 9.99992 4.77101 10.3933 3.90901 10.9193C3.47767 11.1819 3.15167 11.4673 2.94167 11.7339ZM14.1417 9.35592C13.9869 9.20111 13.8032 9.0783 13.6009 8.99452C13.3987 8.91073 13.1819 8.86761 12.963 8.86761C12.7441 8.86761 12.5273 8.91073 12.3251 8.99452C12.1229 9.0783 11.9391 9.20111 11.7843 9.35592L9.50567 11.6339C9.35268 11.787 9.25349 11.9856 9.22301 12.1999L9.00301 13.7386C8.98814 13.8412 8.99743 13.9459 9.03013 14.0443C9.06284 14.1428 9.11805 14.2322 9.19139 14.3055C9.26472 14.3789 9.35416 14.4341 9.45258 14.4668C9.551 14.4995 9.6557 14.5088 9.75834 14.4939L11.297 14.2739C11.5113 14.2434 11.7099 14.1442 11.863 13.9913L14.141 11.7126C14.4535 11.4 14.629 10.9762 14.629 10.5343C14.629 10.0923 14.4541 9.66846 14.1417 9.35592ZM12.727 10.2986C12.7899 10.2379 12.8741 10.2043 12.9615 10.205C13.0489 10.2058 13.1325 10.2408 13.1943 10.3026C13.2561 10.3644 13.2911 10.4481 13.2919 10.5355C13.2927 10.6228 13.2591 10.7071 13.1983 10.7699L10.9983 12.9699L10.4483 13.0486L10.527 12.4986L12.727 10.2986Z" fill="#616161"/>
</g>
<defs>
<clipPath id="clip0_551_5679">
<rect width="16" height="16" fill="white"/>
</clipPath>
</defs>
</svg>
