<svg width="24" height="24" viewBox="0 0 24 24" fill="none" xmlns="http://www.w3.org/2000/svg">
<path d="M12.7447 6.36505C12.7447 5.95084 12.4089 5.61505 11.9947 5.61505C11.5805 5.61505 11.2447 5.95084 11.2447 6.36505H12.7447ZM11.2447 9.69505C11.2447 10.1093 11.5805 10.4451 11.9947 10.4451C12.4089 10.4451 12.7447 10.1093 12.7447 9.69505H11.2447ZM4.72471 12.965L4.08257 12.5775L4.08132 12.5796L4.72471 12.965ZM3.45471 15.085L2.81132 14.6996L2.81029 14.7013L3.45471 15.085ZM4.65471 18.335L4.41754 19.0466L4.41799 19.0467L4.65471 18.335ZM19.3847 18.335L19.6214 19.0467L19.6219 19.0466L19.3847 18.335ZM20.5847 15.085L21.2283 14.7L21.2281 14.6996L20.5847 15.085ZM19.3147 12.965L19.9581 12.5796L19.9569 12.5775L19.3147 12.965ZM18.6847 8.58505H19.4347L19.4347 8.583L18.6847 8.58505ZM11.2447 6.36505V9.69505H12.7447V6.36505H11.2447ZM12.0147 1.17505C7.9205 1.17505 4.60471 4.49083 4.60471 8.58505H6.10471C6.10471 5.31926 8.74892 2.67505 12.0147 2.67505V1.17505ZM4.60471 8.58505V10.685H6.10471V8.58505H4.60471ZM4.60471 10.685C4.60471 10.9369 4.55033 11.2919 4.44795 11.6632C4.34545 12.0349 4.21074 12.3651 4.08257 12.5775L5.36685 13.3525C5.58868 12.985 5.76897 12.5152 5.89397 12.0619C6.01909 11.6082 6.10471 11.1132 6.10471 10.685H4.60471ZM4.08132 12.5796L2.81132 14.6996L4.0981 15.4705L5.3681 13.3505L4.08132 12.5796ZM2.81029 14.7013C2.31554 15.5323 2.21546 16.4604 2.51868 17.2812C2.82202 18.1023 3.50143 18.7412 4.41754 19.0466L4.89188 17.6235C4.36799 17.4489 4.0574 17.1178 3.92574 16.7614C3.79396 16.4047 3.81388 15.9478 4.09913 15.4687L2.81029 14.7013ZM4.41799 19.0467C9.35166 20.6878 14.6878 20.6878 19.6214 19.0467L19.148 17.6234C14.5217 19.1623 9.51776 19.1623 4.89143 17.6234L4.41799 19.0467ZM19.6219 19.0466C21.4295 18.444 22.203 16.3289 21.2283 14.7L19.9411 15.4701C20.4265 16.2812 20.0399 17.3261 19.1475 17.6235L19.6219 19.0466ZM21.2281 14.6996L19.9581 12.5796L18.6713 13.3505L19.9413 15.4705L21.2281 14.6996ZM19.9569 12.5775C19.8292 12.3661 19.6944 12.0339 19.5916 11.66C19.4889 11.2864 19.4347 10.9314 19.4347 10.685H17.9347C17.9347 11.1087 18.0205 11.6037 18.1453 12.0576C18.27 12.5112 18.4502 12.984 18.6726 13.3525L19.9569 12.5775ZM19.4347 10.685V8.58505H17.9347V10.685H19.4347ZM19.4347 8.583C19.4236 4.51079 16.0893 1.17505 12.0147 1.17505V2.67505C15.2601 2.67505 17.9258 5.33931 17.9347 8.5871L19.4347 8.583ZM14.5747 18.7451C14.5747 20.1608 13.4105 21.3251 11.9947 21.3251V22.8251C14.2389 22.8251 16.0747 20.9893 16.0747 18.7451H14.5747ZM11.9947 21.3251C11.2947 21.3251 10.6424 21.0321 10.1751 20.5647L9.1144 21.6254C9.84707 22.3581 10.8748 22.8251 11.9947 22.8251V21.3251ZM10.1751 20.5647C9.70774 20.0974 9.41473 19.4451 9.41473 18.7451H7.91473C7.91473 19.865 8.38173 20.8927 9.1144 21.6254L10.1751 20.5647Z" fill="white"/>
</svg>
