<svg width="14" height="14" viewBox="0 0 14 14" fill="none" xmlns="http://www.w3.org/2000/svg">
<path d="M10.133 11.5659L11.7897 9.93491L11.4245 9.56916L10.133 10.8426L9.57592 10.2738L9.21017 10.6425L10.133 11.5659ZM3.94909 5.09325H10.0519V4.50991H3.9485L3.94909 5.09325ZM10.4999 12.9012C9.85009 12.9012 9.29884 12.6746 8.84617 12.2216C8.39311 11.7689 8.16659 11.2177 8.16659 10.5678C8.16659 9.918 8.39311 9.36655 8.84617 8.9135C9.29922 8.46044 9.85047 8.23411 10.4999 8.2345C11.1494 8.23488 11.7008 8.46122 12.1543 8.9135C12.6077 9.36577 12.834 9.91722 12.8333 10.5678C12.8333 11.2173 12.6069 11.7685 12.1543 12.2216C11.7008 12.6746 11.1494 12.9012 10.4999 12.9012ZM2.33325 12.1154V3.27616C2.33325 3.01483 2.42503 2.79239 2.60859 2.60883C2.79214 2.42527 3.01459 2.3335 3.27592 2.3335H10.7245C10.9851 2.3335 11.2073 2.42527 11.3913 2.60883C11.5748 2.79239 11.6666 3.01483 11.6666 3.27616V6.7435C11.5717 6.7085 11.4776 6.67855 11.3843 6.65366C11.2905 6.62877 11.1902 6.60933 11.0833 6.59533V3.27616C11.0833 3.18633 11.0459 3.10388 10.9713 3.02883C10.8966 2.95377 10.8141 2.91644 10.7239 2.91683H3.27592C3.18609 2.91683 3.10364 2.95416 3.02859 3.02883C2.95353 3.1035 2.9162 3.18594 2.91659 3.27616V11.1127H6.61725C6.6437 11.2721 6.67792 11.4281 6.71992 11.5805C6.76231 11.7329 6.82122 11.8784 6.89667 12.0168L6.87684 12.0367L6.21475 11.5548L5.42959 12.1154L4.64442 11.5548L3.85925 12.1154L3.0735 11.5548L2.33325 12.1154ZM3.94909 9.49041H6.696C6.71778 9.38347 6.74461 9.28333 6.7765 9.19C6.80839 9.09666 6.84572 9.00236 6.8885 8.90708H3.94909V9.49041ZM3.94909 7.29183H8.21325C8.40381 7.14133 8.60797 7.01591 8.82575 6.91558C9.04353 6.81486 9.27628 6.74583 9.524 6.7085H3.9485L3.94909 7.29183Z" fill="#616161"/>
</svg>
