<svg width="24" height="24" viewBox="0 0 24 24" fill="none" xmlns="http://www.w3.org/2000/svg">
<path d="M11.995 10.965C11.895 10.955 11.775 10.955 11.665 10.965C9.28502 10.885 7.39502 8.93497 7.39502 6.53497C7.39502 4.08497 9.37502 2.09497 11.835 2.09497C14.285 2.09497 16.275 4.08497 16.275 6.53497C16.265 8.93497 14.375 10.885 11.995 10.965Z" stroke="white" stroke-width="1.5" stroke-linecap="round" stroke-linejoin="round"/>
<path d="M6.99499 14.655C4.57499 16.275 4.57499 18.915 6.99499 20.525C9.74499 22.365 14.255 22.365 17.005 20.525C19.425 18.905 19.425 16.265 17.005 14.655C14.265 12.825 9.75499 12.825 6.99499 14.655Z" stroke="white" stroke-width="1.5" stroke-linecap="round" stroke-linejoin="round"/>
</svg>
