<svg width="16" height="16" viewBox="0 0 16 16" fill="none" xmlns="http://www.w3.org/2000/svg">
<path d="M7.5 6.44998V11C7.5 11.1326 7.55268 11.2598 7.64645 11.3535C7.74021 11.4473 7.86739 11.5 8 11.5C8.13261 11.5 8.25979 11.4473 8.35355 11.3535C8.44732 11.2598 8.5 11.1326 8.5 11V6.44998C9.10702 6.32607 9.64641 5.98118 10.0136 5.48218C10.3808 4.98318 10.5496 4.36562 10.4873 3.74922C10.4251 3.13281 10.1361 2.56149 9.67658 2.14601C9.21701 1.73053 8.61954 1.50049 8 1.50049C7.38046 1.50049 6.78299 1.73053 6.32342 2.14601C5.86385 2.56149 5.57493 3.13281 5.51266 3.74922C5.45039 4.36562 5.61921 4.98318 5.9864 5.48218C6.35359 5.98118 6.89298 6.32607 7.5 6.44998ZM8 2.49998C8.29667 2.49998 8.58668 2.58795 8.83335 2.75277C9.08003 2.9176 9.27229 3.15186 9.38582 3.42595C9.49935 3.70004 9.52906 4.00164 9.47118 4.29261C9.4133 4.58359 9.27044 4.85086 9.06066 5.06064C8.85088 5.27042 8.58361 5.41328 8.29264 5.47116C8.00166 5.52903 7.70006 5.49933 7.42597 5.3858C7.15189 5.27227 6.91762 5.08001 6.7528 4.83333C6.58797 4.58666 6.5 4.29665 6.5 3.99998C6.5 3.60215 6.65804 3.22062 6.93934 2.93932C7.22064 2.65801 7.60218 2.49998 8 2.49998ZM15 11C15 12.9487 11.3931 14 8 14C4.60687 14 1 12.9487 1 11C1 10.5162 1.23812 9.80435 2.375 9.16185C3.14125 8.7281 4.195 8.39498 5.42312 8.1981C5.55432 8.17738 5.68838 8.20963 5.7958 8.28775C5.90323 8.36587 5.97522 8.48347 5.99594 8.61467C6.01666 8.74587 5.98441 8.87992 5.90629 8.98734C5.82817 9.09477 5.71057 9.16676 5.57937 9.18748C4.48312 9.36373 3.51687 9.66435 2.86562 10.0344C2.31562 10.3437 2 10.6962 2 11C2 11.835 4.2825 13 8 13C11.7175 13 14 11.835 14 11C14 10.6962 13.6844 10.3437 13.1344 10.0319C12.4806 9.66185 11.5169 9.36123 10.4206 9.18498C10.3543 9.17631 10.2904 9.15442 10.2326 9.1206C10.1749 9.08677 10.1245 9.04171 10.0846 8.98807C10.0446 8.93443 10.0157 8.87331 9.99979 8.80834C9.98385 8.74336 9.98111 8.67584 9.99173 8.60978C10.0024 8.54372 10.0261 8.48047 10.0617 8.42377C10.0972 8.36707 10.1437 8.31807 10.1985 8.27968C10.2533 8.24129 10.3152 8.21429 10.3807 8.20028C10.4461 8.18627 10.5137 8.18553 10.5794 8.1981C11.8075 8.39498 12.8612 8.7281 13.6275 9.16185C14.7619 9.80435 15 10.5162 15 11Z" fill="#616161"/>
</svg>
