<svg width="8" height="9" viewBox="0 0 8 9" fill="none" xmlns="http://www.w3.org/2000/svg">
<path d="M7.31118 4.10938H4.40302V1.01562C4.40302 0.878873 4.35195 0.747722 4.26105 0.651023C4.17016 0.554325 4.04687 0.5 3.91832 0.5C3.78977 0.5 3.66649 0.554325 3.57559 0.651023C3.4847 0.747722 3.43363 0.878873 3.43363 1.01562V4.10938H0.525465C0.396917 4.10938 0.273633 4.1637 0.182735 4.2604C0.0918374 4.3571 0.0407715 4.48825 0.0407715 4.625C0.0407715 4.76175 0.0918374 4.8929 0.182735 4.9896C0.273633 5.0863 0.396917 5.14062 0.525465 5.14062H3.43363V8.23438C3.43363 8.37113 3.4847 8.50228 3.57559 8.59898C3.66649 8.69568 3.78977 8.75 3.91832 8.75C4.04687 8.75 4.17016 8.69568 4.26105 8.59898C4.35195 8.50228 4.40302 8.37113 4.40302 8.23438V5.14062H7.31118C7.43973 5.14062 7.56301 5.0863 7.65391 4.9896C7.74481 4.8929 7.79588 4.76175 7.79588 4.625C7.79588 4.48825 7.74481 4.3571 7.65391 4.2604C7.56301 4.1637 7.43973 4.10938 7.31118 4.10938Z" fill="#F7CA00"/>
</svg>
