<svg width="16" height="17" viewBox="0 0 16 17" fill="none" xmlns="http://www.w3.org/2000/svg">
<path d="M2.66675 12.4997C2.66675 11.7924 2.9477 11.1142 3.4478 10.6141C3.94789 10.114 4.62617 9.83301 5.33341 9.83301H10.6667C11.374 9.83301 12.0523 10.114 12.5524 10.6141C13.0525 11.1142 13.3334 11.7924 13.3334 12.4997C13.3334 12.8533 13.1929 13.1924 12.9429 13.4425C12.6928 13.6925 12.3537 13.833 12.0001 13.833H4.00008C3.64646 13.833 3.30732 13.6925 3.05727 13.4425C2.80722 13.1924 2.66675 12.8533 2.66675 12.4997Z" stroke="black" stroke-linejoin="round"/>
<path d="M8 7.1665C9.10457 7.1665 10 6.27107 10 5.1665C10 4.06193 9.10457 3.1665 8 3.1665C6.89543 3.1665 6 4.06193 6 5.1665C6 6.27107 6.89543 7.1665 8 7.1665Z" stroke="black"/>
</svg>
