<svg width="134" height="118" viewBox="0 0 134 118" fill="none" xmlns="http://www.w3.org/2000/svg">
<rect x="80.2939" y="68.6776" width="16.2164" height="8.91902" transform="rotate(44.6768 80.2939 68.6776)" fill="#F54748"/>
<path d="M92.0161 76.4255C89.646 74.1862 85.9215 74.2496 83.6289 76.5681L81.9503 78.2658C79.6578 80.5843 79.6365 84.3093 81.9023 86.654L99.7508 105.123C102.091 107.544 105.964 107.566 108.332 105.172L110.831 102.644C113.198 100.25 113.133 96.3769 110.685 94.0645L92.0161 76.4255Z" fill="#F58220" stroke="#F54748" stroke-width="2"/>
<path d="M38.314 73.6543C49.5443 84.7585 67.65 84.6564 78.7542 73.4261C89.8585 62.1959 89.7564 44.0902 78.5261 32.9859C67.2958 21.8817 49.1901 21.9838 38.0859 33.2141C26.9816 44.4443 27.0838 62.55 38.314 73.6543ZM74.4106 69.1312C65.6783 77.9625 51.4403 78.0428 42.6089 69.3106C33.7776 60.5783 33.6973 46.3403 42.4295 37.509C51.1618 28.6776 65.3999 28.5973 74.2312 37.3296C83.0625 46.0618 83.1428 60.2999 74.4106 69.1312Z" fill="#F54748" stroke="#F54748" stroke-width="2"/>
<ellipse cx="58.4195" cy="53.3201" rx="21.4875" ry="21.4875" transform="rotate(44.6768 58.4195 53.3201)" fill="white"/>
<rect x="89.5195" y="77.7994" width="28.3797" height="4.05425" rx="2.02712" transform="rotate(44.6768 89.5195 77.7994)" fill="white"/>
<path fill-rule="evenodd" clip-rule="evenodd" d="M51.8465 64.0638C60.2411 67.2376 69.4384 61.9275 70.8871 53.0708C71.0654 51.9807 72.0937 51.2415 73.1837 51.4198C74.2738 51.5981 75.013 52.6264 74.8347 53.7164C72.978 65.0674 61.1905 71.8729 50.432 67.8054C49.3988 67.4147 48.8779 66.2605 49.2685 65.2273C49.6591 64.1941 50.8134 63.6732 51.8465 64.0638Z" fill="#F54748"/>
<ellipse cx="32.8597" cy="3.33359" rx="32.8597" ry="3.33359" transform="matrix(-0.999984 0.00564124 0.00564124 0.999984 124.032 110.774)" fill="#DDDEE1"/>
<circle cx="98.2791" cy="35.2791" r="2" fill="#F54748" stroke="#F54748" stroke-width="2.55823"/>
<mask id="path-9-inside-1_914_4336" fill="white">
<path d="M119.979 56L121.036 60.9937L125.959 62.066L121.036 63.1384L119.979 68.1321L118.922 63.1384L114 62.066L118.922 60.9937L119.979 56Z"/>
</mask>
<path d="M119.979 56L121.036 60.9937L125.959 62.066L121.036 63.1384L119.979 68.1321L118.922 63.1384L114 62.066L118.922 60.9937L119.979 56Z" fill="#F54748"/>
<path d="M119.979 56L123.893 55.1717L116.066 55.1717L119.979 56ZM121.036 60.9937L117.123 61.822L117.659 64.3517L120.185 64.902L121.036 60.9937ZM125.959 62.066L126.81 65.9744L126.81 58.1577L125.959 62.066ZM121.036 63.1384L120.185 59.23L117.659 59.7804L117.123 62.31L121.036 63.1384ZM119.979 68.1321L116.066 68.9604L123.893 68.9604L119.979 68.1321ZM118.922 63.1384L122.836 62.31L122.3 59.7804L119.774 59.23L118.922 63.1384ZM114 62.066L113.149 58.1577L113.149 65.9744L114 62.066ZM118.922 60.9937L119.774 64.902L122.3 64.3517L122.836 61.822L118.922 60.9937ZM116.066 56.8283L117.123 61.822L124.95 60.1654L123.893 55.1717L116.066 56.8283ZM120.185 64.902L125.107 65.9744L126.81 58.1577L121.888 57.0854L120.185 64.902ZM125.107 58.1577L120.185 59.23L121.888 67.0467L126.81 65.9744L125.107 58.1577ZM117.123 62.31L116.066 67.3038L123.893 68.9604L124.95 63.9667L117.123 62.31ZM123.893 67.3038L122.836 62.31L115.009 63.9667L116.066 68.9604L123.893 67.3038ZM119.774 59.23L114.851 58.1577L113.149 65.9744L118.071 67.0467L119.774 59.23ZM114.851 65.9744L119.774 64.902L118.071 57.0854L113.149 58.1577L114.851 65.9744ZM122.836 61.822L123.893 56.8283L116.066 55.1717L115.009 60.1654L122.836 61.822Z" fill="#F54748" mask="url(#path-9-inside-1_914_4336)"/>
<mask id="path-11-inside-2_914_4336" fill="white">
<path d="M107.979 4.18865e-08L109.036 4.9937L113.959 6.06604L109.036 7.13837L107.979 12.1321L106.922 7.13837L102 6.06604L106.922 4.9937L107.979 4.18865e-08Z"/>
</mask>
<path d="M107.979 4.18865e-08L109.036 4.9937L113.959 6.06604L109.036 7.13837L107.979 12.1321L106.922 7.13837L102 6.06604L106.922 4.9937L107.979 4.18865e-08Z" fill="#F54748"/>
<path d="M107.979 4.18865e-08L111.893 -0.828325L104.066 -0.828325L107.979 4.18865e-08ZM109.036 4.9937L105.123 5.82203L105.659 8.35166L108.185 8.90204L109.036 4.9937ZM113.959 6.06604L114.81 9.97437L114.81 2.15771L113.959 6.06604ZM109.036 7.13837L108.185 3.23004L105.659 3.78042L105.123 6.31005L109.036 7.13837ZM107.979 12.1321L104.066 12.9604L111.893 12.9604L107.979 12.1321ZM106.922 7.13837L110.836 6.31005L110.3 3.78042L107.774 3.23004L106.922 7.13837ZM102 6.06604L101.149 2.1577L101.149 9.97437L102 6.06604ZM106.922 4.9937L107.774 8.90204L110.3 8.35166L110.836 5.82203L106.922 4.9937ZM104.066 0.828325L105.123 5.82203L112.95 4.16538L111.893 -0.828325L104.066 0.828325ZM108.185 8.90204L113.107 9.97437L114.81 2.15771L109.888 1.08537L108.185 8.90204ZM113.107 2.15771L108.185 3.23004L109.888 11.0467L114.81 9.97437L113.107 2.15771ZM105.123 6.31005L104.066 11.3038L111.893 12.9604L112.95 7.9667L105.123 6.31005ZM111.893 11.3038L110.836 6.31005L103.009 7.9667L104.066 12.9604L111.893 11.3038ZM107.774 3.23004L102.851 2.1577L101.149 9.97437L106.071 11.0467L107.774 3.23004ZM102.851 9.97437L107.774 8.90204L106.071 1.08537L101.149 2.1577L102.851 9.97437ZM110.836 5.82203L111.893 0.828325L104.066 -0.828325L103.009 4.16538L110.836 5.82203Z" fill="#F54748" mask="url(#path-11-inside-2_914_4336)"/>
<mask id="path-13-inside-3_914_4336" fill="white">
<path d="M53.9794 2L55.0364 6.9937L59.9588 8.06604L55.0364 9.13837L53.9794 14.1321L52.9224 9.13837L48 8.06604L52.9224 6.9937L53.9794 2Z"/>
</mask>
<path d="M53.9794 2L55.0364 6.9937L59.9588 8.06604L55.0364 9.13837L53.9794 14.1321L52.9224 9.13837L48 8.06604L52.9224 6.9937L53.9794 2Z" fill="#F54748"/>
<path d="M53.9794 2L57.8927 1.17167L50.0661 1.17167L53.9794 2ZM55.0364 6.9937L51.1231 7.82203L51.6585 10.3517L54.185 10.902L55.0364 6.9937ZM59.9588 8.06604L60.8102 11.9744L60.8102 4.15771L59.9588 8.06604ZM55.0364 9.13837L54.185 5.23004L51.6585 5.78042L51.1231 8.31005L55.0364 9.13837ZM53.9794 14.1321L50.0661 14.9604L57.8927 14.9604L53.9794 14.1321ZM52.9224 9.13837L56.8357 8.31005L56.3002 5.78042L53.7738 5.23004L52.9224 9.13837ZM48 8.06604L47.1486 4.1577L47.1486 11.9744L48 8.06604ZM52.9224 6.9937L53.7738 10.902L56.3002 10.3517L56.8357 7.82203L52.9224 6.9937ZM50.0661 2.82833L51.1231 7.82203L58.9497 6.16538L57.8927 1.17167L50.0661 2.82833ZM54.185 10.902L59.1073 11.9744L60.8102 4.15771L55.8878 3.08537L54.185 10.902ZM59.1073 4.15771L54.185 5.23004L55.8878 13.0467L60.8102 11.9744L59.1073 4.15771ZM51.1231 8.31005L50.0661 13.3038L57.8927 14.9604L58.9497 9.9667L51.1231 8.31005ZM57.8927 13.3038L56.8357 8.31005L49.0091 9.9667L50.0661 14.9604L57.8927 13.3038ZM53.7738 5.23004L48.8514 4.1577L47.1486 11.9744L52.0709 13.0467L53.7738 5.23004ZM48.8514 11.9744L53.7738 10.902L52.0709 3.08537L47.1486 4.1577L48.8514 11.9744ZM56.8357 7.82203L57.8927 2.82833L50.0661 1.17167L49.0091 6.16538L56.8357 7.82203Z" fill="#F54748" mask="url(#path-13-inside-3_914_4336)"/>
<circle cx="5.18749" cy="27.7554" r="2" fill="#F54748" stroke="#F54748" stroke-width="3.59374"/>
<circle cx="19.7969" cy="86.7969" r="2" fill="#F54748" stroke="#F54748" stroke-width="3.59374"/>
<circle cx="82.5" cy="7.5" r="2.5" fill="#F54748" stroke="#F54748" stroke-width="4"/>
<mask id="path-18-inside-4_914_4336" fill="white">
<path d="M123.108 32.1488C123.321 31.144 124.755 31.144 124.968 32.1488C125.045 32.5146 125.331 32.8012 125.696 32.8808C126.706 33.1007 126.706 34.5436 125.696 34.7635C125.331 34.8431 125.045 35.1297 124.968 35.4955C124.755 36.5003 123.321 36.5003 123.108 35.4955C123.031 35.1297 122.745 34.8431 122.38 34.7635C121.37 34.5436 121.37 33.1007 122.38 32.8808C122.745 32.8012 123.031 32.5146 123.108 32.1488Z"/>
</mask>
<path d="M123.108 32.1488C123.321 31.144 124.755 31.144 124.968 32.1488C125.045 32.5146 125.331 32.8012 125.696 32.8808C126.706 33.1007 126.706 34.5436 125.696 34.7635C125.331 34.8431 125.045 35.1297 124.968 35.4955C124.755 36.5003 123.321 36.5003 123.108 35.4955C123.031 35.1297 122.745 34.8431 122.38 34.7635C121.37 34.5436 121.37 33.1007 122.38 32.8808C122.745 32.8012 123.031 32.5146 123.108 32.1488Z" fill="#F54748"/>
<path d="M123.231 36.7891C125.13 36.3755 126.617 34.8868 127.021 32.9771L119.195 31.3204C119.444 30.1424 120.36 29.2269 121.528 28.9724L123.231 36.7891ZM123.231 30.8552C126.42 31.5498 126.42 36.0945 123.231 36.7891L121.528 28.9724C116.321 30.1069 116.321 37.5373 121.528 38.6718L123.231 30.8552ZM127.021 34.6672C126.617 32.7575 125.13 31.2688 123.231 30.8552L121.528 38.6718C120.36 38.4174 119.444 37.5019 119.195 36.3238L127.021 34.6672ZM121.054 34.6672C121.737 31.4431 126.339 31.4431 127.021 34.6672L119.195 36.3238C120.303 41.5575 127.773 41.5575 128.881 36.3238L121.054 34.6672ZM124.845 30.8552C122.946 31.2688 121.459 32.7575 121.054 34.6672L128.881 36.3238C128.632 37.5019 127.716 38.4174 126.548 38.6718L124.845 30.8552ZM124.845 36.7891C121.656 36.0945 121.656 31.5498 124.845 30.8552L126.548 38.6718C131.755 37.5373 131.755 30.1069 126.548 28.9724L124.845 36.7891ZM121.054 32.9771C121.459 34.8868 122.946 36.3755 124.845 36.7891L126.548 28.9724C127.716 29.2269 128.632 30.1424 128.881 31.3204L121.054 32.9771ZM128.881 31.3204C127.773 26.0868 120.303 26.0868 119.195 31.3204L127.021 32.9771C126.339 36.2012 121.737 36.2012 121.054 32.9771L128.881 31.3204Z" fill="#F54748" mask="url(#path-18-inside-4_914_4336)"/>
<path d="M9.28015 64.8248C9.06096 64.9893 8.86527 65.1832 8.6987 65.4007C8.53214 65.1832 8.33645 64.9893 8.11725 64.8248C8.33645 64.6602 8.53214 64.4663 8.6987 64.2488C8.86527 64.4663 9.06096 64.6602 9.28015 64.8248Z" fill="#F54748" stroke="#F54748" stroke-width="4"/>
<path d="M24.9177 12.9125L24.8646 13.1621L24.9177 12.9125Z" fill="#F54748" stroke="#F54748" stroke-width="4"/>
</svg>
