<svg width="16" height="17" viewBox="0 0 16 17" fill="none" xmlns="http://www.w3.org/2000/svg">
<path d="M14.5307 13.9693L11.5625 10.9999C12.4525 9.84021 12.868 8.38541 12.7247 6.93063C12.5815 5.47585 11.8902 4.13002 10.7912 3.16616C9.69215 2.2023 8.26764 1.69257 6.8066 1.74039C5.34557 1.7882 3.95742 2.38998 2.92376 3.42364C1.8901 4.4573 1.28833 5.84544 1.24051 7.30648C1.19269 8.76751 1.70242 10.192 2.66628 11.2911C3.63014 12.3901 4.97597 13.0814 6.43075 13.2246C7.88553 13.3678 9.34033 12.9524 10.5 12.0624L13.4707 15.0337C13.5404 15.1034 13.6232 15.1588 13.7144 15.1965C13.8056 15.2343 13.9032 15.2537 14.0019 15.2537C14.1006 15.2537 14.1983 15.2343 14.2894 15.1965C14.3806 15.1588 14.4634 15.1034 14.5332 15.0337C14.6029 14.9639 14.6583 14.8811 14.696 14.7899C14.7338 14.6988 14.7532 14.6011 14.7532 14.5024C14.7532 14.4038 14.7338 14.3061 14.696 14.2149C14.6583 14.1238 14.6029 14.0409 14.5332 13.9712L14.5307 13.9693ZM2.75004 7.49991C2.75004 6.65934 2.99929 5.83765 3.46629 5.13874C3.93329 4.43983 4.59705 3.8951 5.37363 3.57343C6.15022 3.25175 7.00475 3.16759 7.82917 3.33158C8.65359 3.49556 9.41087 3.90034 10.0052 4.49471C10.5996 5.08908 11.0044 5.84636 11.1684 6.67078C11.3324 7.4952 11.2482 8.34973 10.9265 9.12632C10.6049 9.90291 10.0601 10.5667 9.36121 11.0337C8.6623 11.5007 7.84061 11.7499 7.00004 11.7499C5.87322 11.7488 4.79289 11.3006 3.99611 10.5038C3.19933 9.70706 2.75119 8.62673 2.75004 7.49991Z" fill="#A8A8A8"/>
</svg>
