<svg width="24" height="25" viewBox="0 0 24 25" fill="none" xmlns="http://www.w3.org/2000/svg">
<path fill-rule="evenodd" clip-rule="evenodd" d="M12 8.75C11.0054 8.75 10.0516 9.14509 9.34835 9.84835C8.64509 10.5516 8.25 11.5054 8.25 12.5C8.25 13.4946 8.64509 14.4484 9.34835 15.1517C10.0516 15.8549 11.0054 16.25 12 16.25C12.9946 16.25 13.9484 15.8549 14.6517 15.1517C15.3549 14.4484 15.75 13.4946 15.75 12.5C15.75 11.5054 15.3549 10.5516 14.6517 9.84835C13.9484 9.14509 12.9946 8.75 12 8.75ZM9.75 12.5C9.75 11.9033 9.98705 11.331 10.409 10.909C10.831 10.4871 11.4033 10.25 12 10.25C12.5967 10.25 13.169 10.4871 13.591 10.909C14.0129 11.331 14.25 11.9033 14.25 12.5C14.25 13.0967 14.0129 13.669 13.591 14.091C13.169 14.5129 12.5967 14.75 12 14.75C11.4033 14.75 10.831 14.5129 10.409 14.091C9.98705 13.669 9.75 13.0967 9.75 12.5Z" fill="#3B3B3B"/>
<path fill-rule="evenodd" clip-rule="evenodd" d="M11.975 1.75C11.53 1.75 11.159 1.75 10.855 1.77C10.5443 1.78294 10.2378 1.84714 9.94802 1.96C9.61427 2.09809 9.31099 2.30057 9.05551 2.55589C8.80002 2.8112 8.59733 3.11434 8.45902 3.448C8.31402 3.798 8.27502 4.168 8.25902 4.57C8.25742 4.71702 8.2185 4.86123 8.14591 4.98909C8.07332 5.11695 7.96944 5.22428 7.84402 5.301C7.7149 5.3715 7.56998 5.40803 7.42287 5.40716C7.27576 5.40628 7.13129 5.36803 7.00302 5.296C6.64702 5.108 6.30702 4.957 5.93102 4.907C5.57296 4.8599 5.20914 4.88379 4.86031 4.9773C4.51149 5.07081 4.1845 5.23212 3.89802 5.452C3.65579 5.64688 3.44733 5.88034 3.28102 6.143C3.11102 6.397 2.92502 6.718 2.70302 7.103L2.67802 7.147C2.45502 7.532 2.27002 7.853 2.13602 8.127C1.99602 8.413 1.88602 8.695 1.84602 9.007C1.75062 9.72999 1.9463 10.4613 2.39002 11.04C2.62102 11.341 2.92202 11.56 3.26202 11.774C3.38878 11.8489 3.49439 11.9549 3.56891 12.0819C3.64344 12.2089 3.68442 12.3528 3.68802 12.5C3.68442 12.6472 3.64344 12.7911 3.56891 12.9181C3.49439 13.0451 3.38878 13.1511 3.26202 13.226C2.92202 13.44 2.62202 13.659 2.39002 13.96C2.17014 14.2465 2.00883 14.5735 1.91532 14.9223C1.82181 15.2711 1.79792 15.6349 1.84502 15.993C1.88602 16.305 1.99502 16.587 2.13502 16.873C2.27002 17.147 2.45502 17.468 2.67802 17.853L2.70302 17.897C2.92502 18.282 3.11102 18.603 3.28102 18.857C3.45802 19.12 3.64802 19.357 3.89802 19.547C4.18443 19.7671 4.51138 19.9285 4.86021 20.0222C5.20903 20.1159 5.5729 20.14 5.93102 20.093C6.30702 20.043 6.64702 19.893 7.00302 19.704C7.13114 19.6321 7.27544 19.5939 7.42237 19.593C7.56931 19.5921 7.71405 19.6286 7.84302 19.699C7.96914 19.7751 8.07367 19.8823 8.14666 20.0102C8.21966 20.1382 8.25868 20.2827 8.26002 20.43C8.27502 20.832 8.31402 21.202 8.46002 21.552C8.59811 21.8857 8.80059 22.189 9.05591 22.4445C9.31122 22.7 9.61436 22.9027 9.94802 23.041C10.238 23.161 10.538 23.208 10.855 23.229C11.159 23.25 11.53 23.25 11.975 23.25H12.025C12.47 23.25 12.841 23.25 13.145 23.23C13.463 23.208 13.762 23.161 14.052 23.04C14.3858 22.9019 14.689 22.6994 14.9445 22.4441C15.2 22.1888 15.4027 21.8857 15.541 21.552C15.686 21.202 15.725 20.832 15.741 20.43C15.7425 20.2828 15.7813 20.1384 15.8539 20.0103C15.9265 19.8823 16.0305 19.7748 16.156 19.698C16.2852 19.6276 16.4302 19.5913 16.5773 19.5923C16.7244 19.5934 16.8688 19.6318 16.997 19.704C17.353 19.892 17.693 20.043 18.069 20.092C18.792 20.1874 19.5233 19.9917 20.102 19.548C20.352 19.356 20.542 19.12 20.719 18.857C20.889 18.603 21.075 18.282 21.297 17.897L21.322 17.853C21.545 17.468 21.73 17.147 21.864 16.873C22.004 16.587 22.114 16.304 22.154 15.993C22.2494 15.27 22.0537 14.5387 21.61 13.96C21.379 13.659 21.078 13.44 20.738 13.226C20.6113 13.1511 20.5056 13.0451 20.4311 12.9181C20.3566 12.7911 20.3156 12.6472 20.312 12.5C20.312 12.222 20.464 11.946 20.738 11.774C21.078 11.56 21.378 11.341 21.61 11.04C21.8299 10.7535 21.9912 10.4265 22.0847 10.0777C22.1782 9.72888 22.2021 9.36506 22.155 9.007C22.1074 8.69971 22.0094 8.40238 21.865 8.127C21.6943 7.79475 21.5132 7.46792 21.322 7.147L21.297 7.103C21.1143 6.77709 20.9216 6.45693 20.719 6.143C20.5527 5.88062 20.3442 5.64749 20.102 5.453C19.8156 5.23294 19.4887 5.07146 19.1398 4.97778C18.791 4.88409 18.4271 4.86004 18.069 4.907C17.693 4.957 17.353 5.107 16.997 5.296C16.8689 5.36786 16.7246 5.40601 16.5777 5.40688C16.4307 5.40776 16.286 5.37132 16.157 5.301C16.0312 5.22452 15.9269 5.1173 15.854 4.98942C15.7811 4.86154 15.7418 4.71721 15.74 4.57C15.725 4.168 15.686 3.798 15.54 3.448C15.4019 3.11425 15.1994 2.81097 14.9441 2.55549C14.6888 2.3 14.3857 2.09731 14.052 1.959C13.762 1.839 13.462 1.792 13.145 1.771C12.841 1.75 12.47 1.75 12.025 1.75H11.975ZM10.522 3.345C10.599 3.313 10.716 3.284 10.957 3.267C11.204 3.25 11.524 3.25 12 3.25C12.476 3.25 12.796 3.25 13.043 3.267C13.284 3.284 13.401 3.313 13.478 3.345C13.785 3.472 14.028 3.715 14.155 4.022C14.195 4.118 14.228 4.269 14.241 4.626C14.271 5.418 14.68 6.181 15.406 6.6C16.132 7.02 16.997 6.992 17.698 6.622C18.014 6.455 18.161 6.408 18.265 6.395C18.5936 6.35158 18.9259 6.44043 19.189 6.642C19.255 6.693 19.339 6.78 19.474 6.98C19.613 7.186 19.773 7.463 20.011 7.875C20.249 8.287 20.408 8.565 20.517 8.787C20.624 9.004 20.657 9.12 20.667 9.203C20.7104 9.53157 20.6216 9.86392 20.42 10.127C20.356 10.21 20.242 10.314 19.94 10.504C19.268 10.926 18.812 11.662 18.812 12.5C18.812 13.338 19.268 14.074 19.94 14.496C20.242 14.686 20.356 14.79 20.42 14.873C20.622 15.136 20.71 15.468 20.667 15.797C20.657 15.88 20.623 15.997 20.517 16.213C20.408 16.436 20.249 16.713 20.011 17.125C19.773 17.537 19.612 17.814 19.474 18.02C19.339 18.22 19.255 18.307 19.189 18.358C18.9259 18.5596 18.5936 18.6484 18.265 18.605C18.161 18.592 18.015 18.545 17.698 18.378C16.998 18.008 16.132 17.98 15.406 18.399C14.68 18.819 14.271 19.582 14.241 20.374C14.228 20.731 14.195 20.882 14.155 20.978C14.0922 21.1298 14.0001 21.2677 13.8839 21.3839C13.7677 21.5001 13.6298 21.5922 13.478 21.655C13.401 21.687 13.284 21.716 13.043 21.733C12.796 21.75 12.476 21.75 12 21.75C11.524 21.75 11.204 21.75 10.957 21.733C10.716 21.716 10.599 21.687 10.522 21.655C10.3702 21.5922 10.2323 21.5001 10.1161 21.3839C9.99997 21.2677 9.90784 21.1298 9.84502 20.978C9.80502 20.882 9.77202 20.731 9.75902 20.374C9.72902 19.582 9.32002 18.819 8.59402 18.4C7.86802 17.98 7.00302 18.008 6.30202 18.378C5.98602 18.545 5.83902 18.592 5.73502 18.605C5.40645 18.6484 5.0741 18.5596 4.81102 18.358C4.74502 18.307 4.66102 18.22 4.52602 18.02C4.33793 17.7272 4.15885 17.4287 3.98902 17.125C3.75102 16.713 3.59202 16.435 3.48302 16.213C3.37602 15.996 3.34302 15.88 3.33302 15.797C3.2896 15.4684 3.37845 15.1361 3.58002 14.873C3.64402 14.79 3.75802 14.686 4.06002 14.496C4.73202 14.074 5.18802 13.338 5.18802 12.5C5.18802 11.662 4.73202 10.926 4.06002 10.504C3.75802 10.314 3.64402 10.21 3.58002 10.127C3.37845 9.86392 3.2896 9.53157 3.33302 9.203C3.34302 9.12 3.37702 9.003 3.48302 8.787C3.59202 8.564 3.75102 8.287 3.98902 7.875C4.22702 7.463 4.38802 7.186 4.52602 6.98C4.66102 6.78 4.74502 6.693 4.81102 6.642C5.0741 6.44043 5.40645 6.35158 5.73502 6.395C5.83902 6.408 5.98502 6.455 6.30202 6.622C7.00202 6.992 7.86802 7.02 8.59402 6.6C9.32002 6.181 9.72902 5.418 9.75902 4.626C9.77202 4.269 9.80502 4.118 9.84502 4.022C9.97202 3.715 10.215 3.472 10.522 3.345Z" fill="#3B3B3B"/>
</svg>
