<svg width="22" height="20" viewBox="0 0 22 20" fill="none" xmlns="http://www.w3.org/2000/svg">
<path fill-rule="evenodd" clip-rule="evenodd" d="M1.51239 8.73262C7.41795 6.15964 11.3559 4.46338 13.3263 3.64382C18.9521 1.30384 20.1211 0.897354 20.883 0.883932C21.0506 0.88098 21.4253 0.922512 21.668 1.11946C21.873 1.28576 21.9294 1.5104 21.9563 1.66807C21.9833 1.82574 22.0169 2.18491 21.9902 2.46556C21.6854 5.66882 20.3662 13.4423 19.6951 17.03C19.4111 18.5481 18.852 19.0571 18.3107 19.1069C17.1343 19.2152 16.2409 18.3295 15.1015 17.5826C13.3186 16.4138 12.3113 15.6863 10.5807 14.5458C8.58058 13.2277 9.87715 12.5033 11.017 11.3194C11.3153 11.0096 16.4986 6.29496 16.5989 5.86727C16.6115 5.81378 16.6231 5.61439 16.5046 5.50911C16.3862 5.40382 16.2114 5.43983 16.0852 5.46846C15.9064 5.50905 13.0581 7.39167 7.54035 11.1163C6.73187 11.6715 5.99958 11.942 5.34347 11.9278C4.62016 11.9122 3.2288 11.5189 2.19447 11.1826C0.925826 10.7702 -0.0824703 10.5522 0.00532971 9.85184C0.0510613 9.48705 0.553413 9.11398 1.51239 8.73262Z" fill="url(#paint0_linear_203_9824)"/>
<defs>
<linearGradient id="paint0_linear_203_9824" x1="1100" y1="0.883789" x2="1100" y2="1810.58" gradientUnits="userSpaceOnUse">
<stop stop-color="#2AABEE"/>
<stop offset="1" stop-color="#229ED9"/>
</linearGradient>
</defs>
</svg>
