<svg width="30" height="30" viewBox="0 0 30 30" fill="none" xmlns="http://www.w3.org/2000/svg">
<path fill-rule="evenodd" clip-rule="evenodd" d="M12.6563 1.875C9.79696 1.875 7.05471 3.01088 5.03283 5.03275C3.01096 7.05463 1.87508 9.79688 1.87508 12.6562V13.6275C1.30505 13.9566 0.831702 14.43 0.502601 15.0001C0.173501 15.5701 0.000244141 16.2168 0.000244141 16.875C0.000244141 17.5332 0.173501 18.1799 0.502601 18.7499C0.831702 19.32 1.30505 19.7934 1.87508 20.1225V22.9688C1.87508 24.3363 2.41833 25.6478 3.38531 26.6148C4.35229 27.5818 5.66381 28.125 7.03133 28.125H22.9688C24.3364 28.125 25.6479 27.5818 26.6149 26.6148C27.5818 25.6478 28.1251 24.3363 28.1251 22.9688V20.1225C28.6951 19.7934 29.1685 19.32 29.4976 18.7499C29.8267 18.1799 29.9999 17.5332 29.9999 16.875C29.9999 16.2168 29.8267 15.5701 29.4976 15.0001C29.1685 14.43 28.6951 13.9566 28.1251 13.6275V12.6562C28.1251 9.79688 26.9892 7.05463 24.9673 5.03275C22.9454 3.01088 20.2032 1.875 17.3438 1.875H12.6563ZM26.2501 15.9375H3.75008C3.50144 15.9375 3.26298 16.0363 3.08717 16.2121C2.91135 16.3879 2.81258 16.6264 2.81258 16.875C2.81258 17.1236 2.91135 17.3621 3.08717 17.5379C3.26298 17.7137 3.50144 17.8125 3.75008 17.8125H26.2501C26.4987 17.8125 26.7372 17.7137 26.913 17.5379C27.0888 17.3621 27.1876 17.1236 27.1876 16.875C27.1876 16.6264 27.0888 16.3879 26.913 16.2121C26.7372 16.0363 26.4987 15.9375 26.2501 15.9375ZM25.3126 13.125V12.6562C25.3126 10.5428 24.473 8.51592 22.9786 7.02149C21.4842 5.52706 19.4573 4.6875 17.3438 4.6875H12.6563C10.5429 4.6875 8.516 5.52706 7.02157 7.02149C5.52714 8.51592 4.68758 10.5428 4.68758 12.6562V13.125H25.3126ZM20.6251 20.625H25.3126V22.9688C25.3126 24.2625 24.2626 25.3125 22.9688 25.3125H7.03133C5.73758 25.3125 4.68758 24.2625 4.68758 22.9688V20.625H16.8751L18.7501 22.5L20.6251 20.625Z" fill="#63432D"/>
</svg>
