<svg width="14" height="14" viewBox="0 0 14 14" fill="none" xmlns="http://www.w3.org/2000/svg">
<path d="M7.00002 11.6667C8.2377 11.6667 9.42468 11.1751 10.2999 10.2999C11.175 9.42474 11.6667 8.23776 11.6667 7.00008C11.6667 5.7624 11.175 4.57542 10.2999 3.70025C9.42468 2.82508 8.2377 2.33341 7.00002 2.33341C5.76234 2.33341 4.57536 2.82508 3.70019 3.70025C2.82502 4.57542 2.33335 5.7624 2.33335 7.00008C2.33335 8.23776 2.82502 9.42474 3.70019 10.2999C4.57536 11.1751 5.76234 11.6667 7.00002 11.6667ZM7.00002 1.16675C7.76606 1.16675 8.52461 1.31763 9.23234 1.61078C9.94007 1.90394 10.5831 2.33362 11.1248 2.87529C11.6665 3.41697 12.0962 4.06003 12.3893 4.76776C12.6825 5.47549 12.8334 6.23404 12.8334 7.00008C12.8334 8.54718 12.2188 10.0309 11.1248 11.1249C10.0308 12.2188 8.54712 12.8334 7.00002 12.8334C3.77419 12.8334 1.16669 10.2084 1.16669 7.00008C1.16669 5.45298 1.78127 3.96925 2.87523 2.87529C3.96919 1.78133 5.45292 1.16675 7.00002 1.16675ZM7.29169 4.08341V7.14591L9.91669 8.70341L9.47919 9.42091L6.41669 7.58341V4.08341H7.29169Z" fill="#939393"/>
</svg>
