<svg width="24" height="24" viewBox="0 0 24 24" fill="none" xmlns="http://www.w3.org/2000/svg">
<path d="M4.465 11.42L2.725 9.67999L0.994995 11.42M19.525 12.58L21.265 14.32L23.005 12.58M21.255 14.32V12C21.255 6.88 17.105 2.73999 11.995 2.73999C9.07502 2.73999 6.46501 4.10002 4.76501 6.21002M2.73499 9.67999V12C2.73499 17.12 6.88499 21.26 11.995 21.26C14.915 21.26 17.525 19.9 19.225 17.79M8.995 12H13.375C14.345 12 15.125 11.22 15.125 10.25C15.125 9.38 14.345 8.5 13.375 8.5H8.995V12ZM8.995 12H13.995C15.095 12 15.995 12.78 15.995 13.75C15.995 14.72 15.095 15.5 13.995 15.5H8.995V12ZM11.795 15.5V17.25M11.795 6.75V8.5" stroke="#787878" stroke-width="1.5" stroke-miterlimit="10" stroke-linecap="round" stroke-linejoin="round"/>
</svg>
