<svg width="25" height="25" viewBox="0 0 25 25" fill="none" xmlns="http://www.w3.org/2000/svg">
<path d="M8.51001 15.0099C8.69001 15.3099 8.91 15.59 9.16 15.84C11 17.68 13.99 17.68 15.84 15.84C16.59 15.09 17.02 14.1399 17.16 13.1699M7.83997 11.8301C7.97997 10.8501 8.40997 9.91003 9.15997 9.16003C11 7.32003 13.99 7.32003 15.84 9.16003C16.1 9.42003 16.31 9.70005 16.49 9.99005M8.31995 17.68V15.01H10.9899M16.68 7.32007V9.99005H14.01M22.5 12.5C22.5 18.0228 18.0228 22.5 12.5 22.5C6.97715 22.5 2.5 18.0228 2.5 12.5C2.5 6.97715 6.97715 2.5 12.5 2.5C18.0228 2.5 22.5 6.97715 22.5 12.5Z" stroke="white" stroke-width="1.5" stroke-linecap="round" stroke-linejoin="round"/>
</svg>
