<svg width="185" height="132" viewBox="0 0 185 132" fill="none" xmlns="http://www.w3.org/2000/svg">
<path d="M172.236 2.31812H140.347C139.567 2.31812 138.935 2.95018 138.935 3.72986V22.5353C138.935 23.315 139.567 23.9471 140.347 23.9471H172.236C173.015 23.9471 173.647 23.315 173.647 22.5353V3.72986C173.647 2.95018 173.015 2.31812 172.236 2.31812Z" fill="#F4F4F4"/>
<g opacity="0.04">
<path d="M172.235 2.31812H140.346C139.973 2.31807 139.615 2.46581 139.35 2.72904C139.085 2.99228 138.936 3.34958 138.934 3.72283L156.29 15.5675L173.646 3.72283C173.644 3.3498 173.495 2.99266 173.231 2.72945C172.966 2.46624 172.608 2.31836 172.235 2.31812Z" fill="#292A2E"/>
</g>
<path d="M183.218 87.6738H142.964C141.979 87.6738 141.182 88.4717 141.182 89.4559V113.195C141.182 114.179 141.979 114.977 142.964 114.977H183.218C184.203 114.977 185 114.179 185 113.195V89.4559C185 88.4717 184.203 87.6738 183.218 87.6738Z" fill="#F4F4F4"/>
<g opacity="0.04">
<path d="M183.218 87.6736H142.963C142.492 87.6735 142.04 87.86 141.706 88.1922C141.372 88.5245 141.183 88.9755 141.181 89.4466L163.09 104.399L184.999 89.4466C184.997 88.9758 184.808 88.5251 184.474 88.1929C184.141 87.8607 183.689 87.674 183.218 87.6736Z" fill="#292A2E"/>
</g>
<path d="M47.0788 36.3992H15.6362C14.8674 36.3992 14.2443 37.0224 14.2443 37.7911V56.3334C14.2443 57.1021 14.8674 57.7253 15.6362 57.7253H47.0788C47.8476 57.7253 48.4707 57.1021 48.4707 56.3334V37.7911C48.4707 37.0224 47.8476 36.3992 47.0788 36.3992Z" fill="#F4F4F4"/>
<g opacity="0.04">
<path d="M47.0786 36.3992H15.6362C15.2681 36.3991 14.9151 36.5448 14.6541 36.8043C14.3932 37.0639 14.2457 37.4162 14.2438 37.7842L31.357 49.4635L48.4702 37.7847C48.4685 37.4167 48.3212 37.0643 48.0604 36.8047C47.7996 36.5451 47.4466 36.3992 47.0786 36.3992Z" fill="#292A2E"/>
</g>
<path d="M46.8669 49.3913C46.4624 49.2025 46.0619 49.0072 45.6771 48.8114C45.6271 48.7859 45.569 48.7813 45.5156 48.7987C45.4622 48.8161 45.4179 48.8539 45.3924 48.9039C45.367 48.9539 45.3624 49.012 45.3798 49.0654C45.3971 49.1188 45.435 49.1631 45.485 49.1886C45.874 49.3868 46.2787 49.5839 46.6876 49.775C46.7383 49.7976 46.7958 49.7993 46.8478 49.7799C46.8998 49.7605 46.9421 49.7214 46.9655 49.6711C46.989 49.6208 46.9918 49.5633 46.9733 49.511C46.9549 49.4587 46.9166 49.4157 46.8667 49.3913H46.8669Z" fill="#292A2E"/>
<path d="M53.0546 51.7438L53.0243 51.7346C52.6087 51.6073 52.194 51.475 51.7918 51.3412C51.7386 51.3234 51.6804 51.3276 51.6302 51.3527C51.58 51.3778 51.5419 51.4219 51.5241 51.4752C51.5064 51.5284 51.5106 51.5866 51.5357 51.6368C51.5608 51.687 51.6049 51.7251 51.6581 51.7429C52.0642 51.8778 52.4815 52.0112 52.8987 52.1388L52.9318 52.1489L52.942 52.1517C52.9958 52.1657 53.0529 52.158 53.101 52.1302C53.1491 52.1024 53.1844 52.0568 53.1992 52.0032C53.214 51.9497 53.2071 51.8924 53.18 51.8439C53.153 51.7954 53.1079 51.7594 53.0546 51.7438Z" fill="#292A2E"/>
<path d="M43.9323 47.8649C43.5481 47.6426 43.167 47.4119 42.8005 47.1806C42.777 47.1649 42.7505 47.1541 42.7228 47.1487C42.695 47.1434 42.6665 47.1436 42.6388 47.1495C42.6111 47.1554 42.5849 47.1667 42.5617 47.1829C42.5385 47.199 42.5188 47.2197 42.5037 47.2436C42.4886 47.2675 42.4784 47.2942 42.4738 47.3221C42.4692 47.3499 42.4702 47.3785 42.4768 47.406C42.4833 47.4335 42.4954 47.4594 42.5121 47.4822C42.5289 47.5049 42.55 47.5241 42.5743 47.5386C42.9457 47.7729 43.3313 48.0072 43.7202 48.2314C43.7374 48.2413 43.7559 48.2487 43.7751 48.2536C43.8246 48.2659 43.8768 48.2599 43.9223 48.2367C43.9677 48.2136 44.0032 48.1748 44.0224 48.1275C44.0415 48.0802 44.0429 48.0276 44.0264 47.9794C44.0098 47.9311 43.9764 47.8905 43.9323 47.8649Z" fill="#292A2E"/>
<path d="M56.2441 52.6897C55.8133 52.5648 55.3874 52.4405 54.9663 52.3168C54.9397 52.3084 54.9116 52.3054 54.8838 52.3081C54.8559 52.3108 54.829 52.319 54.8044 52.3324C54.7798 52.3458 54.7582 52.3639 54.7409 52.3858C54.7235 52.4077 54.7107 52.4329 54.7033 52.4598C54.6875 52.5137 54.6937 52.5717 54.7205 52.621C54.7474 52.6703 54.7927 52.7069 54.8465 52.7229C55.2679 52.8472 55.6946 52.9717 56.1265 53.0964L56.1341 53.0985C56.1877 53.1113 56.2442 53.1026 56.2916 53.0744C56.339 53.0462 56.3734 53.0006 56.3877 52.9473C56.4019 52.8941 56.3948 52.8373 56.3679 52.7892C56.3409 52.7411 56.2963 52.7054 56.2434 52.6897H56.2441Z" fill="#292A2E"/>
<path d="M41.1586 46.0699C40.7993 45.8099 40.4461 45.5411 40.1068 45.2704C40.0629 45.2354 40.0069 45.2193 39.9512 45.2256C39.8954 45.2319 39.8444 45.26 39.8094 45.3039C39.7744 45.3478 39.7582 45.4038 39.7645 45.4596C39.7708 45.5154 39.799 45.5664 39.8429 45.6014C40.1873 45.8761 40.5457 46.149 40.9101 46.4128C40.932 46.4286 40.9568 46.4402 40.983 46.4468C41.0307 46.4587 41.081 46.4535 41.1254 46.4324C41.1697 46.4112 41.2053 46.3752 41.2261 46.3307C41.2468 46.2861 41.2514 46.2358 41.2391 46.1882C41.2268 46.1406 41.1983 46.0988 41.1586 46.0699Z" fill="#292A2E"/>
<path d="M49.9182 50.6758C49.5056 50.5196 49.0904 50.3561 48.6858 50.1892C48.66 50.1787 48.6325 50.1733 48.6047 50.1733C48.5769 50.1734 48.5494 50.179 48.5237 50.1897C48.4981 50.2004 48.4748 50.216 48.4552 50.2357C48.4356 50.2554 48.42 50.2788 48.4095 50.3045C48.3989 50.3302 48.3935 50.3578 48.3936 50.3856C48.3936 50.4134 48.3992 50.4409 48.4099 50.4665C48.4206 50.4922 48.4362 50.5155 48.4559 50.5351C48.4756 50.5547 48.499 50.5702 48.5247 50.5808C48.9336 50.749 49.3525 50.9143 49.7684 51.0717C49.7762 51.0747 49.7841 51.0771 49.7922 51.079C49.8445 51.092 49.8999 51.0845 49.9469 51.0581C49.9939 51.0316 50.029 50.9882 50.0451 50.9368C50.0612 50.8853 50.057 50.8296 50.0334 50.7811C50.0099 50.7326 49.9686 50.6949 49.9182 50.6758Z" fill="#292A2E"/>
<path d="M38.606 43.9798C38.282 43.6787 37.9657 43.368 37.6643 43.0565C37.6449 43.0365 37.6219 43.0205 37.5964 43.0094C37.5709 42.9983 37.5435 42.9923 37.5157 42.9919C37.4879 42.9914 37.4603 42.9964 37.4344 43.0065C37.4085 43.0167 37.3849 43.0319 37.3649 43.0512C37.3449 43.0705 37.3289 43.0936 37.3179 43.1191C37.3068 43.1446 37.3008 43.172 37.3003 43.1998C37.2998 43.2276 37.3048 43.2552 37.315 43.2811C37.3252 43.307 37.3404 43.3306 37.3597 43.3506C37.6657 43.6676 37.9882 43.9837 38.3179 44.29C38.3383 44.3089 38.3622 44.3236 38.3882 44.3333C38.4143 44.343 38.442 44.3475 38.4698 44.3465C38.4975 44.3454 38.5248 44.3389 38.5501 44.3274C38.5754 44.3158 38.5981 44.2994 38.6171 44.279C38.636 44.2586 38.6507 44.2347 38.6604 44.2087C38.6701 44.1826 38.6745 44.1549 38.6735 44.1271C38.6725 44.0993 38.666 44.072 38.6544 44.0468C38.6429 44.0215 38.6264 43.9987 38.606 43.9798Z" fill="#292A2E"/>
<path d="M38.5933 18.0115C38.9088 17.7129 39.2393 17.416 39.5753 17.1292C39.5964 17.1112 39.6138 17.0891 39.6264 17.0643C39.639 17.0396 39.6467 17.0126 39.6489 16.9849C39.651 16.9571 39.6478 16.9293 39.6392 16.9028C39.6306 16.8764 39.6169 16.8519 39.5988 16.8307C39.5808 16.8096 39.5588 16.7922 39.534 16.7796C39.5092 16.7669 39.4822 16.7593 39.4545 16.7571C39.4268 16.7549 39.3989 16.7582 39.3725 16.7668C39.346 16.7754 39.3215 16.7891 39.3004 16.8072C38.959 17.0986 38.6232 17.4006 38.3022 17.7041C38.282 17.7232 38.2658 17.7461 38.2545 17.7715C38.2431 17.7969 38.2369 17.8243 38.2362 17.8521C38.2354 17.8798 38.2401 17.9075 38.2501 17.9335C38.26 17.9594 38.275 17.9832 38.2941 18.0034C38.3132 18.0235 38.3361 18.0398 38.3615 18.0511C38.3869 18.0624 38.4142 18.0686 38.442 18.0694C38.4698 18.0702 38.4975 18.0654 38.5234 18.0555C38.5494 18.0456 38.5731 18.0306 38.5933 18.0115Z" fill="#292A2E"/>
<path d="M32.9435 26.3103C32.9485 26.3121 32.9535 26.3135 32.9591 26.3147C33.0109 26.3276 33.0657 26.3205 33.1125 26.2947C33.1592 26.2688 33.1945 26.2263 33.2112 26.1755C33.3466 25.7649 33.5012 25.3506 33.671 24.9442C33.6926 24.8924 33.6928 24.8342 33.6715 24.7822C33.6502 24.7303 33.6092 24.6889 33.5574 24.6673C33.5056 24.6456 33.4474 24.6454 33.3954 24.6667C33.3435 24.688 33.3022 24.729 33.2805 24.7808C33.1065 25.1974 32.948 25.622 32.8091 26.0431C32.7916 26.0964 32.7958 26.1544 32.821 26.2045C32.8462 26.2546 32.8902 26.2927 32.9435 26.3103Z" fill="#292A2E"/>
<path d="M32.5082 29.3767C32.5562 28.9464 32.6237 28.5103 32.7088 28.0804C32.7142 28.0531 32.7142 28.025 32.7087 27.9978C32.7033 27.9705 32.6925 27.9446 32.6771 27.9215C32.6616 27.8984 32.6417 27.8785 32.6186 27.8631C32.5955 27.8477 32.5696 27.837 32.5423 27.8316C32.515 27.8261 32.487 27.8262 32.4597 27.8316C32.4324 27.8371 32.4065 27.8478 32.3834 27.8633C32.3603 27.8787 32.3405 27.8986 32.325 27.9217C32.3096 27.9448 32.2989 27.9708 32.2935 27.998C32.206 28.44 32.1373 28.8883 32.0875 29.3301C32.0818 29.381 32.0948 29.4322 32.1239 29.4743C32.1531 29.5164 32.1965 29.5464 32.2462 29.5589C32.2555 29.5613 32.2649 29.563 32.2744 29.5639C32.3021 29.567 32.3301 29.5647 32.3568 29.5569C32.3836 29.5492 32.4085 29.5362 32.4302 29.5188C32.4519 29.5015 32.47 29.4799 32.4834 29.4555C32.4968 29.4311 32.5052 29.4043 32.5082 29.3767Z" fill="#292A2E"/>
<path d="M35.1466 21.748C35.0995 21.7176 35.0422 21.7071 34.9873 21.7188C34.9325 21.7305 34.8845 21.7635 34.8539 21.8105C34.6085 22.1896 34.3755 22.5775 34.1612 22.9641C34.1341 23.0132 34.1275 23.0711 34.143 23.1251C34.1585 23.1791 34.1948 23.2247 34.2438 23.2519C34.2601 23.2608 34.2773 23.2676 34.2952 23.2722C34.3405 23.2835 34.3882 23.2795 34.4309 23.2609C34.4737 23.2423 34.5091 23.2101 34.5317 23.1693C34.7411 22.7912 34.969 22.4115 35.2091 22.0406C35.2395 21.9935 35.25 21.9362 35.2383 21.8814C35.2266 21.8265 35.1936 21.7786 35.1466 21.748Z" fill="#292A2E"/>
<path d="M32.4168 31.3416C32.4147 31.2862 32.3909 31.2338 32.3506 31.1958C32.3103 31.1577 32.2567 31.137 32.2013 31.138C32.1459 31.139 32.093 31.1617 32.0542 31.2012C32.0153 31.2408 31.9935 31.294 31.9934 31.3494C32.0017 31.7967 32.03 32.2497 32.0771 32.6959C32.08 32.7235 32.0884 32.7503 32.1017 32.7747C32.1149 32.7991 32.1329 32.8207 32.1545 32.8382C32.1761 32.8556 32.201 32.8687 32.2276 32.8766C32.2543 32.8844 32.2822 32.887 32.3098 32.8841C32.3375 32.8811 32.3643 32.8728 32.3887 32.8595C32.4131 32.8463 32.4347 32.8283 32.4521 32.8067C32.4696 32.7851 32.4827 32.7602 32.4905 32.7336C32.4984 32.7069 32.501 32.679 32.498 32.6514C32.4523 32.2173 32.4248 31.7767 32.4168 31.3416Z" fill="#292A2E"/>
<path d="M36.0653 20.4711C36.0888 20.49 36.1161 20.5035 36.1453 20.5108C36.1848 20.5206 36.2263 20.5189 36.2648 20.5058C36.3033 20.4927 36.3373 20.4688 36.3626 20.4369C36.6314 20.0984 36.9173 19.7592 37.2128 19.4289C37.2485 19.3868 37.2663 19.3324 37.2625 19.2773C37.2587 19.2223 37.2335 19.1709 37.1924 19.1341C37.1512 19.0973 37.0974 19.078 37.0422 19.0804C36.9871 19.0827 36.935 19.1065 36.8972 19.1467C36.5962 19.4832 36.3048 19.8287 36.031 20.1739C36.0137 20.1956 36.0009 20.2206 35.9932 20.2473C35.9856 20.274 35.9833 20.302 35.9865 20.3296C35.9897 20.3572 35.9983 20.3839 36.0118 20.4082C36.0254 20.4325 36.0435 20.4539 36.0653 20.4711Z" fill="#292A2E"/>
<path d="M33.9112 37.6857C33.8875 37.6348 33.8446 37.5953 33.7919 37.576C33.7392 37.5567 33.681 37.5591 33.63 37.5828C33.5791 37.6064 33.5397 37.6493 33.5203 37.702C33.501 37.7547 33.5035 37.813 33.5271 37.8639C33.7136 38.2651 33.9198 38.6683 34.14 39.0625C34.1681 39.1101 34.2138 39.1448 34.2672 39.1592C34.3206 39.1736 34.3775 39.1666 34.4257 39.1396C34.474 39.1126 34.5098 39.0677 34.5255 39.0147C34.5411 38.9616 34.5354 38.9046 34.5095 38.8557C34.2944 38.471 34.0939 38.0777 33.9112 37.6857Z" fill="#292A2E"/>
<path d="M42.2673 14.8443C42.2359 14.7977 42.1874 14.7654 42.1323 14.7546C42.0772 14.7438 42.0201 14.7552 41.9735 14.7865C41.6 15.0364 41.2311 15.2963 40.8767 15.5574C40.8544 15.5739 40.8355 15.5947 40.8211 15.6185C40.8067 15.6423 40.7972 15.6687 40.793 15.6961C40.7889 15.7236 40.7902 15.7517 40.7968 15.7786C40.8035 15.8056 40.8154 15.831 40.8319 15.8534C40.8484 15.8758 40.8691 15.8947 40.8929 15.9091C40.9167 15.9234 40.9431 15.933 40.9706 15.9371C40.9981 15.9413 41.0261 15.94 41.0531 15.9333C41.0801 15.9266 41.1055 15.9147 41.1279 15.8982C41.4773 15.6408 41.8412 15.385 42.2093 15.1379C42.2559 15.1067 42.2882 15.0582 42.2991 15.0031C42.31 14.9481 42.2985 14.8909 42.2673 14.8443Z" fill="#292A2E"/>
<path d="M36.3553 41.5753C36.0782 41.2317 35.8113 40.8781 35.5622 40.5245C35.5465 40.501 35.5262 40.4809 35.5026 40.4654C35.479 40.4498 35.4526 40.4391 35.4248 40.434C35.397 40.4288 35.3685 40.4293 35.3409 40.4353C35.3133 40.4413 35.2872 40.4528 35.2641 40.4691C35.241 40.4854 35.2214 40.5061 35.2064 40.5301C35.1915 40.554 35.1815 40.5808 35.177 40.6087C35.1725 40.6365 35.1737 40.665 35.1804 40.6925C35.1871 40.7199 35.1992 40.7458 35.216 40.7684C35.4703 41.1294 35.7427 41.4903 36.0259 41.8413C36.043 41.8638 36.0644 41.8827 36.089 41.8968C36.1135 41.9109 36.1407 41.9199 36.1688 41.9234C36.1969 41.9268 36.2254 41.9246 36.2526 41.9168C36.2798 41.909 36.3052 41.8958 36.3272 41.8781C36.3493 41.8603 36.3675 41.8383 36.3809 41.8134C36.3943 41.7884 36.4025 41.761 36.4052 41.7328C36.4078 41.7046 36.4047 41.6762 36.3961 41.6492C36.3876 41.6223 36.3737 41.5973 36.3553 41.5758V41.5753Z" fill="#292A2E"/>
<path d="M32.8303 34.5909C32.8173 34.5363 32.7832 34.489 32.7353 34.4596C32.6875 34.4302 32.63 34.421 32.5754 34.434C32.5208 34.447 32.4735 34.4812 32.4441 34.529C32.4147 34.5768 32.4055 34.6343 32.4185 34.689C32.5217 35.1225 32.6449 35.5587 32.7847 35.9853C32.8022 36.0386 32.8402 36.0829 32.8903 36.1082C32.9403 36.1336 32.9985 36.138 33.0518 36.1205C33.1052 36.1031 33.1494 36.0651 33.1747 36.015C33.2001 35.9649 33.2045 35.9068 33.1871 35.8535C33.0509 35.4382 32.9309 35.013 32.8303 34.5909Z" fill="#292A2E"/>
<path d="M45.1327 13.1542C45.1062 13.1046 45.0612 13.0676 45.0075 13.0513C44.9538 13.0349 44.8958 13.0406 44.8462 13.067C44.4513 13.2777 44.0577 13.4974 43.6767 13.72C43.6527 13.734 43.6317 13.7527 43.6149 13.7748C43.5981 13.7969 43.5859 13.8222 43.5788 13.8491C43.5718 13.876 43.5701 13.904 43.5739 13.9315C43.5776 13.9591 43.5868 13.9856 43.6008 14.0096C43.6149 14.0336 43.6335 14.0546 43.6556 14.0714C43.6778 14.0882 43.703 14.1004 43.7299 14.1075C43.7568 14.1145 43.7848 14.1162 43.8123 14.1125C43.8399 14.1087 43.8664 14.0995 43.8904 14.0855C44.2666 13.8657 44.6557 13.6482 45.0462 13.4406C45.0956 13.414 45.1324 13.369 45.1487 13.3153C45.1649 13.2616 45.1591 13.2036 45.1327 13.1542Z" fill="#292A2E"/>
<path d="M47.2727 11.8844C47.0663 11.9763 46.8618 12.0692 46.6592 12.1634C46.634 12.1751 46.6113 12.1916 46.5925 12.2121C46.5737 12.2325 46.5591 12.2565 46.5495 12.2826C46.54 12.3087 46.5356 12.3364 46.5368 12.3642C46.538 12.392 46.5446 12.4193 46.5563 12.4445C46.568 12.4697 46.5845 12.4924 46.605 12.5112C46.6255 12.53 46.6494 12.5446 46.6755 12.5542C46.7016 12.5637 46.7294 12.5681 46.7571 12.5669C46.7849 12.5657 46.8122 12.5591 46.8374 12.5474C47.0382 12.4537 47.2406 12.3617 47.4448 12.2713C47.4941 12.2472 47.5322 12.205 47.551 12.1535C47.5698 12.1019 47.5678 12.0451 47.5455 11.995C47.5233 11.9448 47.4824 11.9053 47.4316 11.8847C47.3808 11.8641 47.3239 11.864 47.273 11.8844H47.2727Z" fill="#292A2E"/>
<path d="M140.85 123.223C140.434 123.303 140.201 123.34 140.199 123.34C140.171 123.345 140.145 123.354 140.121 123.369C140.098 123.383 140.077 123.402 140.06 123.425C140.027 123.47 140.014 123.527 140.022 123.582C140.031 123.638 140.061 123.687 140.107 123.72C140.152 123.753 140.209 123.767 140.264 123.759C140.274 123.757 140.506 123.721 140.931 123.638C140.959 123.633 140.985 123.623 141.008 123.607C141.032 123.592 141.052 123.572 141.068 123.549C141.084 123.526 141.095 123.5 141.101 123.473C141.106 123.445 141.106 123.417 141.101 123.39C141.096 123.362 141.085 123.336 141.069 123.313C141.054 123.289 141.034 123.269 141.01 123.254C140.987 123.238 140.961 123.227 140.933 123.222C140.906 123.217 140.878 123.217 140.85 123.223Z" fill="#292A2E"/>
<path d="M172.598 94.0952C172.562 94.5339 172.515 94.976 172.46 95.4096C172.453 95.461 172.466 95.513 172.495 95.5558C172.524 95.5986 172.568 95.6292 172.618 95.6419C172.626 95.6439 172.635 95.6454 172.643 95.6464C172.671 95.6499 172.699 95.648 172.725 95.6407C172.752 95.6335 172.777 95.621 172.799 95.604C172.821 95.587 172.84 95.5658 172.854 95.5417C172.868 95.5175 172.876 95.4909 172.88 95.4633C172.936 95.0235 172.983 94.575 173.021 94.13C173.023 94.0755 173.003 94.0224 172.967 93.9816C172.931 93.9409 172.881 93.9156 172.826 93.9111C172.772 93.9066 172.718 93.9233 172.676 93.9575C172.633 93.9918 172.606 94.0411 172.599 94.0952H172.598Z" fill="#292A2E"/>
<path d="M172.699 92.1146C172.698 92.1625 172.713 92.2093 172.742 92.2473C172.771 92.2854 172.812 92.3124 172.859 92.3241C172.874 92.3279 172.89 92.33 172.906 92.3303C172.933 92.3309 172.961 92.3259 172.987 92.3158C173.013 92.3057 173.036 92.2905 173.056 92.2713C173.077 92.252 173.093 92.2289 173.104 92.2035C173.115 92.178 173.121 92.1505 173.121 92.1227C173.13 91.6832 173.13 91.2325 173.12 90.7833C173.119 90.7272 173.096 90.6738 173.055 90.6349C173.015 90.596 172.961 90.5748 172.904 90.576C172.848 90.5771 172.795 90.6005 172.756 90.641C172.717 90.6815 172.696 90.7358 172.697 90.7919C172.707 91.2355 172.707 91.6801 172.699 92.1146Z" fill="#292A2E"/>
<path d="M172.363 85.6954C172.397 85.7039 172.432 85.7038 172.466 85.6952C172.5 85.6865 172.531 85.6696 172.557 85.6458C172.583 85.6221 172.602 85.5923 172.614 85.5592C172.625 85.5261 172.628 85.4906 172.623 85.456C172.552 85.0195 172.472 84.5764 172.387 84.139C172.376 84.0846 172.344 84.0367 172.297 84.0059C172.251 83.9751 172.194 83.9637 172.14 83.9743C172.085 83.985 172.037 84.0167 172.005 84.0626C171.974 84.1086 171.962 84.165 171.972 84.2198C172.056 84.6529 172.134 85.0918 172.205 85.5241C172.211 85.565 172.23 85.603 172.258 85.6334C172.286 85.6639 172.322 85.6855 172.363 85.6954Z" fill="#292A2E"/>
<path d="M164.613 111.613C164.594 111.594 164.57 111.578 164.545 111.567C164.519 111.556 164.492 111.55 164.464 111.55C164.436 111.55 164.409 111.555 164.383 111.565C164.357 111.576 164.334 111.591 164.314 111.611C164.001 111.918 163.677 112.223 163.351 112.518C163.31 112.556 163.285 112.609 163.282 112.665C163.279 112.721 163.299 112.776 163.337 112.817C163.374 112.859 163.427 112.884 163.483 112.887C163.539 112.889 163.594 112.87 163.636 112.832C163.965 112.533 164.293 112.224 164.61 111.913C164.63 111.893 164.646 111.87 164.657 111.844C164.668 111.819 164.673 111.791 164.674 111.764C164.674 111.736 164.669 111.708 164.658 111.683C164.648 111.657 164.632 111.633 164.613 111.613Z" fill="#292A2E"/>
<path d="M159.177 115.77C158.813 116.014 158.44 116.257 158.065 116.492C158.017 116.521 157.984 116.569 157.971 116.624C157.958 116.678 157.968 116.736 157.998 116.784C158.028 116.831 158.075 116.865 158.13 116.878C158.185 116.89 158.242 116.881 158.29 116.851C158.668 116.614 159.046 116.369 159.413 116.122C159.436 116.107 159.456 116.087 159.471 116.064C159.487 116.041 159.497 116.015 159.503 115.987C159.508 115.96 159.508 115.932 159.502 115.905C159.497 115.877 159.486 115.852 159.471 115.829C159.455 115.805 159.435 115.786 159.412 115.77C159.389 115.755 159.363 115.744 159.336 115.739C159.308 115.733 159.28 115.734 159.253 115.739C159.226 115.745 159.2 115.755 159.177 115.771V115.77Z" fill="#292A2E"/>
<path d="M171.551 82.2777C171.556 82.3054 171.568 82.3315 171.584 82.3547C171.6 82.3778 171.621 82.3975 171.645 82.4126C171.669 82.4277 171.695 82.4378 171.723 82.4424C171.751 82.4471 171.779 82.4461 171.807 82.4395C171.834 82.4329 171.86 82.4209 171.883 82.4042C171.906 82.3875 171.925 82.3664 171.939 82.3422C171.954 82.3179 171.963 82.291 171.967 82.2631C171.971 82.2351 171.97 82.2066 171.962 82.1793C171.86 81.7508 171.749 81.3149 171.634 80.883C171.62 80.829 171.584 80.7831 171.536 80.7552C171.487 80.7273 171.43 80.7198 171.376 80.7342C171.322 80.7487 171.275 80.7839 171.247 80.8323C171.219 80.8807 171.211 80.9382 171.226 80.9923C171.339 81.42 171.449 81.8524 171.551 82.2777Z" fill="#292A2E"/>
<path d="M168.882 74.7955C168.866 74.7725 168.846 74.7527 168.823 74.7373C168.8 74.7219 168.774 74.7112 168.747 74.7059C168.719 74.7005 168.691 74.7006 168.664 74.7061C168.637 74.7116 168.611 74.7224 168.588 74.7379C168.565 74.7534 168.545 74.7733 168.53 74.7965C168.514 74.8196 168.504 74.8456 168.498 74.8728C168.493 74.9001 168.493 74.9282 168.498 74.9554C168.504 74.9827 168.515 75.0086 168.53 75.0317C168.777 75.3986 169.012 75.7735 169.229 76.1464C169.243 76.171 169.261 76.1927 169.283 76.2101C169.305 76.2275 169.331 76.2403 169.358 76.2478C169.385 76.2552 169.413 76.2572 169.441 76.2536C169.469 76.2499 169.496 76.2408 169.52 76.2266C169.545 76.2124 169.566 76.1935 169.583 76.171C169.6 76.1485 169.612 76.1228 169.619 76.0955C169.626 76.0682 169.627 76.0398 169.623 76.0119C169.619 75.9841 169.609 75.9574 169.594 75.9333C169.373 75.5527 169.133 75.1701 168.882 74.7955Z" fill="#292A2E"/>
<path d="M162.14 113.84C162.105 113.796 162.054 113.768 161.998 113.763C161.942 113.757 161.886 113.773 161.843 113.809C161.504 114.082 161.152 114.355 160.797 114.621C160.754 114.655 160.726 114.705 160.719 114.759C160.712 114.814 160.726 114.869 160.759 114.914C160.792 114.958 160.841 114.987 160.896 114.996C160.95 115.005 161.006 114.991 161.051 114.96C161.41 114.691 161.766 114.415 162.108 114.138C162.13 114.12 162.148 114.099 162.161 114.074C162.175 114.05 162.183 114.023 162.186 113.995C162.189 113.968 162.186 113.94 162.179 113.913C162.171 113.886 162.158 113.861 162.14 113.84Z" fill="#292A2E"/>
<path d="M170.519 77.7196C170.495 77.6685 170.453 77.6287 170.4 77.609C170.348 77.5892 170.29 77.5912 170.238 77.6144C170.187 77.6376 170.148 77.6801 170.128 77.7327C170.108 77.7852 170.11 77.8435 170.133 77.8946C170.314 78.2938 170.483 78.703 170.635 79.1108C170.655 79.162 170.695 79.2031 170.746 79.2254C170.796 79.2477 170.853 79.2494 170.905 79.2302C170.957 79.2109 170.999 79.1723 171.023 79.1224C171.046 79.0725 171.05 79.0154 171.032 78.9632C170.877 78.5462 170.704 78.1278 170.519 77.7196Z" fill="#292A2E"/>
<path d="M171.571 100.422C171.545 100.414 171.517 100.41 171.489 100.412C171.461 100.414 171.434 100.422 171.409 100.434C171.385 100.447 171.363 100.464 171.344 100.485C171.326 100.506 171.312 100.531 171.304 100.557C171.166 100.974 171.017 101.392 170.86 101.799C170.839 101.852 170.841 101.91 170.863 101.961C170.886 102.013 170.928 102.053 170.981 102.073C170.989 102.076 170.997 102.079 171.006 102.081C171.056 102.093 171.109 102.087 171.155 102.063C171.2 102.04 171.236 102 171.255 101.952C171.414 101.538 171.566 101.113 171.706 100.689C171.714 100.663 171.718 100.635 171.716 100.608C171.714 100.58 171.706 100.553 171.694 100.528C171.681 100.503 171.664 100.481 171.643 100.463C171.622 100.445 171.597 100.431 171.571 100.422Z" fill="#292A2E"/>
<path d="M172.557 97.4482C172.563 97.4209 172.564 97.3926 172.558 97.3651C172.553 97.3376 172.543 97.3114 172.527 97.2882C172.512 97.2649 172.491 97.245 172.468 97.2298C172.445 97.2145 172.418 97.2042 172.391 97.1994C172.336 97.1884 172.279 97.1998 172.232 97.231C172.185 97.2622 172.153 97.3107 172.142 97.3657C172.056 97.7977 171.959 98.2314 171.853 98.6547C171.846 98.6818 171.844 98.7101 171.848 98.738C171.852 98.7658 171.861 98.7926 171.875 98.8168C171.89 98.841 171.909 98.8622 171.931 98.879C171.954 98.8958 171.979 98.9079 172.006 98.9147C172.034 98.9215 172.062 98.9228 172.09 98.9186C172.118 98.9143 172.144 98.9046 172.168 98.8899C172.192 98.8752 172.213 98.8559 172.229 98.8331C172.246 98.8103 172.258 98.7845 172.264 98.7571C172.371 98.3273 172.47 97.8869 172.557 97.4482Z" fill="#292A2E"/>
<path d="M170.36 103.517C170.335 103.505 170.308 103.498 170.28 103.496C170.252 103.495 170.225 103.499 170.198 103.508C170.172 103.518 170.148 103.532 170.128 103.551C170.107 103.569 170.09 103.592 170.078 103.617C169.891 104.011 169.69 104.408 169.482 104.794C169.469 104.819 169.461 104.845 169.458 104.873C169.455 104.901 169.458 104.929 169.466 104.955C169.474 104.982 169.487 105.007 169.504 105.028C169.522 105.05 169.544 105.068 169.568 105.081C169.592 105.094 169.619 105.102 169.647 105.105C169.675 105.108 169.703 105.105 169.729 105.097C169.756 105.089 169.781 105.076 169.802 105.059C169.824 105.041 169.842 105.019 169.855 104.995C170.066 104.602 170.27 104.2 170.461 103.799C170.485 103.748 170.488 103.69 170.469 103.637C170.45 103.584 170.411 103.541 170.36 103.517Z" fill="#292A2E"/>
<path d="M172.76 88.9987C172.793 89.0067 172.827 89.0069 172.859 88.9993C172.892 88.9916 172.922 88.9764 172.948 88.9548C172.973 88.9332 172.994 88.9058 173.007 88.8749C173.02 88.844 173.025 88.8105 173.023 88.7771C172.989 88.3385 172.947 87.8901 172.896 87.4444C172.889 87.3893 172.861 87.3392 172.817 87.3048C172.774 87.2705 172.718 87.2547 172.663 87.2608C172.608 87.267 172.557 87.2946 172.522 87.3377C172.487 87.3808 172.471 87.4359 172.476 87.4912C172.525 87.9321 172.567 88.3754 172.601 88.809C172.604 88.8533 172.621 88.8955 172.65 88.9296C172.678 88.9636 172.717 88.9878 172.76 88.9987Z" fill="#292A2E"/>
<path d="M166.84 109.143C166.819 109.125 166.794 109.112 166.767 109.104C166.741 109.096 166.713 109.093 166.685 109.096C166.657 109.099 166.631 109.107 166.606 109.12C166.582 109.133 166.56 109.151 166.542 109.173C166.266 109.511 165.977 109.849 165.683 110.177C165.665 110.197 165.651 110.221 165.641 110.248C165.632 110.274 165.628 110.302 165.63 110.329C165.631 110.357 165.638 110.384 165.65 110.409C165.662 110.435 165.679 110.457 165.7 110.476C165.721 110.494 165.745 110.508 165.771 110.518C165.797 110.527 165.825 110.531 165.853 110.529C165.881 110.528 165.908 110.521 165.933 110.509C165.958 110.497 165.98 110.48 165.999 110.459C166.297 110.126 166.59 109.784 166.87 109.441C166.888 109.419 166.901 109.394 166.909 109.368C166.917 109.341 166.92 109.313 166.917 109.285C166.914 109.258 166.906 109.231 166.893 109.206C166.88 109.182 166.862 109.16 166.84 109.143Z" fill="#292A2E"/>
<path d="M168.771 106.436C168.748 106.421 168.722 106.411 168.694 106.406C168.667 106.401 168.639 106.402 168.612 106.408C168.585 106.414 168.559 106.425 168.536 106.441C168.513 106.457 168.494 106.478 168.479 106.501C168.245 106.868 167.997 107.237 167.742 107.597C167.726 107.619 167.714 107.645 167.707 107.673C167.701 107.7 167.7 107.728 167.704 107.756C167.709 107.784 167.719 107.81 167.734 107.834C167.748 107.858 167.768 107.879 167.791 107.895C167.814 107.911 167.84 107.923 167.867 107.929C167.895 107.935 167.923 107.935 167.951 107.931C167.978 107.926 168.005 107.915 168.028 107.9C168.052 107.885 168.072 107.865 168.088 107.842C168.347 107.476 168.598 107.102 168.836 106.729C168.866 106.681 168.876 106.624 168.864 106.569C168.852 106.514 168.819 106.467 168.771 106.436Z" fill="#292A2E"/>
<path d="M144.079 122.466C143.649 122.582 143.216 122.693 142.791 122.796C142.764 122.803 142.739 122.814 142.717 122.831C142.694 122.847 142.675 122.868 142.661 122.892C142.646 122.915 142.637 122.942 142.632 122.969C142.628 122.997 142.629 123.025 142.636 123.052C142.642 123.079 142.654 123.104 142.671 123.127C142.687 123.149 142.708 123.168 142.731 123.182C142.755 123.197 142.781 123.207 142.809 123.211C142.836 123.215 142.864 123.214 142.891 123.207C143.319 123.104 143.755 122.992 144.189 122.875C144.216 122.868 144.241 122.855 144.263 122.838C144.285 122.821 144.303 122.8 144.317 122.776C144.331 122.752 144.34 122.725 144.344 122.698C144.347 122.67 144.345 122.642 144.338 122.616C144.331 122.589 144.319 122.564 144.302 122.542C144.285 122.519 144.263 122.501 144.239 122.487C144.215 122.473 144.189 122.464 144.161 122.461C144.134 122.457 144.106 122.459 144.079 122.466Z" fill="#292A2E"/>
<path d="M159.968 66.9933C160.016 67.0053 160.068 66.9998 160.113 66.9776C160.158 66.9555 160.193 66.9181 160.213 66.8721C160.233 66.8262 160.236 66.7747 160.222 66.7267C160.207 66.6787 160.176 66.6374 160.134 66.6101C159.766 66.3716 159.385 66.1325 159.001 65.8992C158.953 65.87 158.895 65.8611 158.841 65.8745C158.786 65.8878 158.739 65.9222 158.71 65.9702C158.681 66.0183 158.672 66.0759 158.685 66.1305C158.699 66.185 158.733 66.2321 158.781 66.2612C159.162 66.4922 159.539 66.7298 159.904 66.9655C159.924 66.9782 159.945 66.9875 159.968 66.9933Z" fill="#292A2E"/>
<path d="M147.257 121.508C146.84 121.647 146.415 121.783 145.992 121.914C145.965 121.922 145.941 121.936 145.919 121.953C145.898 121.971 145.88 121.993 145.867 122.017C145.854 122.042 145.846 122.069 145.844 122.097C145.841 122.124 145.844 122.152 145.852 122.179C145.86 122.205 145.874 122.23 145.891 122.251C145.909 122.273 145.931 122.291 145.955 122.304C145.98 122.316 146.007 122.324 146.035 122.327C146.062 122.33 146.09 122.327 146.117 122.319C146.543 122.188 146.972 122.05 147.391 121.91C147.444 121.892 147.488 121.854 147.513 121.804C147.539 121.754 147.543 121.695 147.525 121.642C147.507 121.589 147.469 121.545 147.419 121.52C147.368 121.495 147.31 121.491 147.257 121.508L147.257 121.508Z" fill="#292A2E"/>
<path d="M153.413 119.035C153.017 119.224 152.611 119.411 152.208 119.591C152.158 119.615 152.12 119.657 152.102 119.708C152.083 119.76 152.085 119.817 152.107 119.867C152.129 119.917 152.17 119.957 152.221 119.977C152.272 119.998 152.329 119.998 152.38 119.977C152.786 119.796 153.195 119.608 153.595 119.418C153.645 119.394 153.684 119.35 153.703 119.297C153.722 119.244 153.719 119.186 153.695 119.136C153.671 119.085 153.627 119.046 153.575 119.027C153.522 119.008 153.463 119.011 153.413 119.035H153.413Z" fill="#292A2E"/>
<path d="M156.356 117.508C155.976 117.723 155.584 117.937 155.192 118.144C155.142 118.17 155.105 118.215 155.088 118.268C155.072 118.322 155.077 118.38 155.103 118.43C155.129 118.48 155.174 118.517 155.228 118.533C155.282 118.55 155.34 118.545 155.389 118.519C155.785 118.31 156.18 118.094 156.564 117.877C156.613 117.85 156.649 117.804 156.664 117.75C156.679 117.696 156.672 117.638 156.644 117.589C156.617 117.54 156.571 117.504 156.517 117.489C156.463 117.474 156.405 117.481 156.356 117.509V117.508Z" fill="#292A2E"/>
<path d="M167.469 73.5159C167.512 73.5267 167.558 73.5236 167.599 73.5072C167.64 73.4908 167.675 73.4619 167.699 73.4245C167.723 73.3871 167.735 73.3431 167.732 73.2988C167.73 73.2545 167.713 73.2121 167.685 73.1776C167.409 72.8363 167.116 72.4934 166.813 72.1582C166.775 72.1183 166.723 72.0947 166.668 72.0927C166.613 72.0906 166.559 72.1102 166.518 72.1471C166.477 72.1841 166.452 72.2356 166.448 72.2907C166.445 72.3458 166.463 72.4001 166.499 72.442C166.797 72.7715 167.085 73.1086 167.356 73.4437C167.385 73.4796 167.425 73.5049 167.469 73.5159Z" fill="#292A2E"/>
<path d="M150.373 120.365C149.968 120.528 149.552 120.689 149.135 120.844C149.084 120.865 149.042 120.905 149.02 120.955C148.998 121.006 148.996 121.063 149.015 121.115C149.035 121.167 149.074 121.209 149.124 121.232C149.173 121.256 149.231 121.259 149.283 121.241C149.703 121.085 150.123 120.922 150.531 120.758C150.557 120.748 150.581 120.733 150.602 120.714C150.623 120.694 150.639 120.671 150.65 120.645C150.662 120.619 150.668 120.592 150.668 120.563C150.669 120.535 150.664 120.507 150.653 120.481C150.643 120.455 150.627 120.431 150.607 120.411C150.587 120.391 150.564 120.375 150.537 120.364C150.511 120.353 150.483 120.348 150.455 120.348C150.427 120.348 150.399 120.354 150.373 120.365Z" fill="#292A2E"/>
<path d="M165.212 71.0768C165.257 71.0884 165.305 71.0846 165.349 71.0659C165.392 71.0472 165.427 71.0148 165.45 70.9737C165.472 70.9326 165.481 70.8851 165.474 70.8388C165.466 70.7924 165.444 70.7498 165.41 70.7176C165.093 70.4155 164.76 70.1116 164.42 69.8142C164.378 69.7773 164.322 69.7587 164.266 69.7624C164.21 69.7662 164.158 69.7921 164.121 69.8344C164.084 69.8767 164.066 69.9319 164.069 69.988C164.073 70.044 164.099 70.0962 164.141 70.1331C164.477 70.4263 164.805 70.7258 165.117 71.0234C165.144 71.0491 165.176 71.0675 165.212 71.0768Z" fill="#292A2E"/>
<path d="M162.686 68.9128C162.733 68.9246 162.783 68.9197 162.827 68.8992C162.871 68.8786 162.907 68.8435 162.928 68.7998C162.949 68.7561 162.955 68.7065 162.944 68.6592C162.933 68.6119 162.906 68.5698 162.867 68.54C162.521 68.2725 162.16 68.0034 161.793 67.7402C161.771 67.7225 161.745 67.7094 161.717 67.702C161.69 67.6945 161.661 67.6927 161.633 67.6966C161.604 67.7006 161.577 67.7103 161.552 67.7251C161.528 67.7399 161.507 67.7595 161.49 67.7828C161.473 67.806 161.461 67.8324 161.455 67.8604C161.449 67.8883 161.449 67.9172 161.454 67.9454C161.459 67.9735 161.47 68.0003 161.486 68.0241C161.502 68.0479 161.522 68.0682 161.546 68.0838C161.909 68.344 162.266 68.61 162.608 68.8744C162.631 68.8925 162.658 68.9056 162.686 68.9128Z" fill="#292A2E"/>
<path d="M46.4526 6.42053L46.5553 13.2476L71.679 0.181763L46.4526 6.42053Z" fill="#F7CA00"/>
<path opacity="0.2" d="M46.4526 6.42053L46.5553 13.2476L71.679 0.181763L46.4526 6.42053Z" fill="#0A0A0A"/>
<path d="M47.7573 8.437L46.5553 13.2476L65.7773 2.87451L47.7573 8.437Z" fill="#F7CA00"/>
<path opacity="0.1" d="M47.7573 8.437L46.5553 13.2476L65.7773 2.87451L47.7573 8.437Z" fill="#0A0A0A"/>
<path d="M44.1116 2.72959L71.679 0.181763L52.3284 16.7345L47.7572 8.43702L71.679 0.181763L46.4526 6.42053L44.1116 2.72959Z" fill="#F7CA00"/>
<path d="M42.4749 55.7522L102.783 94.1244L163.09 55.7522L102.762 0L42.4749 55.7522Z" fill="#292A2E"/>
<path d="M151.404 8.14294H54.1615V114.421H151.404V8.14294Z" fill="white"/>
<path d="M151.56 114.577H54.0054V7.98669H151.56V114.577ZM54.3179 114.265H151.248V8.29906H54.3177L54.3179 114.265Z" fill="#292A2E"/>
<path d="M83.469 17.6735H63.5193V37.6232H83.469V17.6735Z" fill="white"/>
<path d="M83.625 37.7793H63.3628V17.5171H83.625V37.7793ZM63.6755 37.4669H83.3126V17.8295H63.6752L63.6755 37.4669Z" fill="#292A2E"/>
<path d="M142.418 45.4429H63.5194V45.7552H142.418V45.4429Z" fill="#292A2E"/>
<path d="M142.418 52.927H63.5194V53.2394H142.418V52.927Z" fill="#292A2E"/>
<path d="M142.418 60.4114H63.5194V60.7237H142.418V60.4114Z" fill="#292A2E"/>
<path d="M142.418 67.8958H63.5194V68.2081H142.418V67.8958Z" fill="#292A2E"/>
<path d="M142.418 75.3801H63.5194V75.6925H142.418V75.3801Z" fill="#292A2E"/>
<path d="M142.418 82.8645H63.5194V83.1769H142.418V82.8645Z" fill="#292A2E"/>
<path d="M163.09 130.907H42.4749V55.7522L102.783 92.5626L163.09 55.7522V130.907Z" fill="#E95322"/>
<path opacity="0.83" d="M162.615 131.154H42V56L102.308 92.8104L162.615 56V131.154Z" fill="white"/>
<path d="M10.4587 128.306L10.121 130.446C10.0844 130.677 9.96684 130.889 9.78921 131.042C9.61159 131.195 9.38538 131.281 9.15078 131.283L0.549573 131.366C0.426031 131.367 0.305768 131.327 0.208539 131.25C0.11131 131.174 0.0428968 131.067 0.0145378 130.947C-0.0138211 130.827 -0.00043944 130.7 0.0524846 130.589C0.105409 130.477 0.194728 130.387 0.30577 130.332L5.46968 127.817L10.4587 128.306Z" fill="#E98862"/>
<path d="M20.52 117.399C20.52 117.399 20.4619 130.022 29.5963 131.19L38.196 123.32L43.5276 112.685L23.5712 114.887L20.52 117.399Z" fill="#262626"/>
<path d="M20.2741 116.712L20.2469 116.719C20.2469 116.719 20.158 116.184 20.2741 116.712Z" fill="#333333"/>
<path d="M54.8809 80.1535C54.8792 80.1482 54.8736 80.1452 54.8701 80.1407L54.9565 79.9667C55.0169 79.8502 55.0352 79.7163 55.0082 79.5879C54.9813 79.4594 54.9107 79.3442 54.8086 79.2617C54.7435 79.2113 54.668 79.176 54.5876 79.1583C54.5072 79.1406 54.4239 79.1409 54.3436 79.1593C54.2634 79.1778 54.1882 79.2137 54.1235 79.2647C54.0589 79.3157 54.0063 79.3804 53.9697 79.4541L53.7704 79.8558C53.7686 79.8544 53.7682 79.8518 53.7661 79.8505C53.7639 79.8493 53.76 79.8505 53.7572 79.8505C53.7869 79.7281 53.7741 79.5993 53.7209 79.4851C53.6678 79.371 53.5774 79.2783 53.4646 79.2222C53.1835 79.0584 52.8588 79.2947 52.7306 79.5544L51.5317 81.8691L51.5675 81.1194C51.5772 80.9735 51.5313 80.8293 51.439 80.716C51.3467 80.6026 51.2148 80.5284 51.07 80.5084C50.9949 80.5007 50.919 80.5085 50.8469 80.5311C50.7749 80.5538 50.7082 80.5909 50.651 80.6402C50.5937 80.6895 50.5471 80.7499 50.514 80.8178C50.4809 80.8857 50.462 80.9596 50.4584 81.035L50.2633 85.1291C50.2405 85.6094 50.4058 86.0797 50.7241 86.44C51.0425 86.8004 51.4888 87.0225 51.9682 87.059C52.5243 87.1014 53.0803 86.9768 53.565 86.7011C54.0498 86.4254 54.4411 86.0113 54.6889 85.5117C54.6889 85.5117 55.0555 79.9405 54.8809 80.1535Z" fill="#E98862"/>
<path d="M51.4175 73.4166L50.3277 73.601C49.9116 73.6714 49.6313 74.0659 49.7017 74.482L51.2546 83.6595C51.325 84.0756 51.7195 84.3559 52.1356 84.2855L53.2254 84.1011C53.6416 84.0307 53.9219 83.6362 53.8514 83.2201L52.2985 74.0426C52.2281 73.6265 51.8337 73.3462 51.4175 73.4166Z" fill="#292A2E"/>
<path d="M48.4226 69.5566L48.0897 69.6129C46.027 69.9619 44.6378 71.917 44.9868 73.9797C45.3359 76.0424 47.2909 77.4316 49.3536 77.0826L49.6866 77.0262C51.7493 76.6772 53.1385 74.7221 52.7894 72.6594C52.4404 70.5967 50.4853 69.2075 48.4226 69.5566Z" fill="#F7CA00"/>
<path d="M61.139 73.5897L60.4282 73.9308L59.6201 69.155L60.3785 69.1816C60.441 69.8615 60.5332 70.5765 60.6578 71.3126C60.7932 72.1127 60.9561 72.878 61.139 73.5897Z" fill="#367CFF"/>
<path d="M63.2412 70.8762C63.3999 71.8134 63.3328 72.6071 63.0916 72.6478C63.0633 72.6498 63.0348 72.6452 63.0085 72.6344C62.9822 72.6236 62.9588 72.6068 62.9401 72.5854C62.7283 72.3909 62.4951 71.7751 62.3682 71.0245C62.2502 70.3273 62.257 69.7102 62.3682 69.4226C62.4063 69.3235 62.4564 69.2636 62.5184 69.2532C62.7583 69.2113 63.0827 69.9382 63.2412 70.8762Z" fill="#367CFF"/>
<path d="M60.661 71.3279C60.66 71.3226 60.6593 71.3176 60.6585 71.3123C60.1431 68.2667 60.5521 64.9671 61.0352 63.7114C59.1433 65.6284 56.3903 67.5837 53.8045 68.3773C52.7613 68.6973 51.485 68.989 49.5461 69.3144L50.8269 76.8859C52.7649 76.5557 54.0661 76.4112 55.1566 76.3704C57.8586 76.2689 61.1019 77.2095 63.5185 78.3979C62.6492 77.371 61.1772 74.3888 60.6621 71.344L60.661 71.3279Z" fill="#F7CA00"/>
<path d="M52.085 68.4783L48.0725 69.1573C47.9212 69.1829 47.8193 69.3263 47.8449 69.4776L49.1619 77.2608C49.1875 77.4121 49.3309 77.514 49.4822 77.4884L53.4947 76.8094C53.646 76.7838 53.7479 76.6404 53.7223 76.4891L52.4053 68.7059C52.3797 68.5546 52.2363 68.4527 52.085 68.4783Z" fill="#292A2E"/>
<path opacity="0.1" d="M52.085 68.4783L48.0725 69.1573C47.9212 69.1829 47.8193 69.3263 47.8449 69.4776L49.1619 77.2608C49.1875 77.4121 49.3309 77.514 49.4822 77.4884L53.4947 76.8094C53.646 76.7838 53.7479 76.6404 53.7223 76.4891L52.4053 68.7059C52.3797 68.5546 52.2363 68.4527 52.085 68.4783Z" fill="white"/>
<path d="M64.4741 70.6665C65.167 74.7621 64.8736 78.2258 63.8204 78.404C63.6105 78.4396 63.3869 78.3424 63.1584 78.1308C63.1571 78.1308 63.157 78.1299 63.1559 78.1308C62.2306 77.2813 61.2125 74.5917 60.6569 71.3131C60.1415 68.2675 60.1715 65.573 60.6546 64.3171C60.8205 63.8843 61.04 63.6226 61.3106 63.5768C62.3646 63.3978 63.7812 66.5722 64.4741 70.6665Z" fill="#F7CA00"/>
<path opacity="0.3" d="M64.4741 70.6665C65.167 74.7621 64.8736 78.2258 63.8204 78.404C63.6105 78.4396 63.3869 78.3424 63.1584 78.1308C63.1571 78.1308 63.157 78.1299 63.1559 78.1308C62.2306 77.2813 61.2125 74.5917 60.6569 71.3131C60.1415 68.2675 60.1715 65.573 60.6546 64.3171C60.8205 63.8843 61.04 63.6226 61.3106 63.5768C62.3646 63.3978 63.7812 66.5722 64.4741 70.6665Z" fill="#0C0C0C"/>
<path opacity="0.6" d="M62.5179 69.2566L63.0924 72.6517L61.139 73.5888C60.9561 72.8771 60.7932 72.1118 60.6578 71.3116C60.5328 70.5755 60.4405 69.8605 60.3785 69.1807L62.5179 69.2566Z" fill="white"/>
<path d="M63.2412 70.8762C63.3999 71.8134 63.3328 72.6071 63.0916 72.6478C63.0633 72.6498 63.0348 72.6452 63.0085 72.6344C62.9822 72.6236 62.9588 72.6068 62.9401 72.5854C62.7283 72.3909 62.4951 71.7751 62.3682 71.0245C62.2502 70.3273 62.257 69.7102 62.3682 69.4226C62.4063 69.3235 62.4564 69.2636 62.5184 69.2532C62.7583 69.2113 63.0827 69.9382 63.2412 70.8762Z" fill="white"/>
<path d="M51.7695 81.6154C51.8155 81.5101 51.893 81.4218 51.9914 81.3625C52.0898 81.3032 52.2041 81.2759 52.3186 81.2844C52.3173 81.2776 52.3176 81.2706 52.3195 81.2639C52.3215 81.2573 52.325 81.2512 52.3299 81.2462C52.3347 81.2413 52.3407 81.2376 52.3472 81.2354C52.3538 81.2333 52.3608 81.2328 52.3677 81.2339L51.9686 80.9801C51.8495 80.908 51.7604 80.7951 51.718 80.6624C51.6756 80.5297 51.6827 80.3862 51.7379 80.2583C51.7966 80.1338 51.8993 80.0355 52.0263 79.9824C52.1532 79.9294 52.2954 79.9254 52.4251 79.9712C52.4239 79.9657 52.4273 79.9603 52.4278 79.9548L52.2638 79.8505C52.1518 79.782 52.0669 79.6769 52.0235 79.553C51.9801 79.4291 51.9808 79.294 52.0255 79.1706C52.0551 79.0938 52.1014 79.0245 52.1611 78.9678C52.2207 78.911 52.2923 78.8682 52.3705 78.8424C52.4486 78.8167 52.5316 78.8086 52.6133 78.8187C52.695 78.8289 52.7734 78.857 52.8429 78.9012L53.2212 79.1417C53.2222 79.1395 53.2212 79.1372 53.2223 79.135C53.2234 79.1328 53.2276 79.132 53.2295 79.1297C53.1407 79.0403 53.085 78.9235 53.0714 78.7983C53.0577 78.6731 53.0871 78.5469 53.1545 78.4406C53.3107 78.1548 53.7105 78.1891 53.9551 78.3447L54.6878 78.8945C54.8008 78.9794 54.8911 79.0909 54.9506 79.2191C55.0101 79.3473 55.037 79.4882 55.0289 79.6293C54.9597 80.8505 54.7028 84.0359 53.922 83.5395L51.9997 82.3174C51.8879 82.2434 51.8043 82.1338 51.7625 82.0064C51.7207 81.879 51.7232 81.7412 51.7695 81.6154Z" fill="#E98862"/>
<path d="M48.7877 84.0146L46.2402 97.7997L39.7282 87.7637L34.7533 93.6082L45.1291 107.781L45.2172 107.863C45.7514 108.349 46.4005 108.69 47.1033 108.856C47.8061 109.022 48.5396 109.006 49.2345 108.809C49.9295 108.613 50.563 108.243 51.0754 107.735C51.5879 107.226 51.9624 106.595 52.1636 105.901L56.4369 85.2416L48.7877 84.0146Z" fill="#F7CA00"/>
<path d="M45.8869 99.1558C45.8798 99.1558 45.8728 99.1548 45.866 99.1528C45.8461 99.1473 45.8292 99.1341 45.819 99.1161C45.8088 99.0981 45.8062 99.0768 45.8116 99.0569L46.1649 97.779C46.1704 97.759 46.1836 97.7421 46.2016 97.7319C46.2197 97.7216 46.241 97.719 46.261 97.7245C46.2809 97.73 46.2979 97.7432 46.3081 97.7612C46.3183 97.7792 46.321 97.8006 46.3155 97.8205L45.962 99.0983C45.9575 99.1148 45.9477 99.1293 45.9342 99.1397C45.9206 99.1501 45.904 99.1557 45.8869 99.1558Z" fill="#0C0C0C"/>
<path d="M17.6011 76.3071C17.6011 76.3071 17.687 79.9981 16.9815 81.4034C14.9502 85.4495 14.6499 89.8217 17.2314 91.8604C19.813 93.8991 34.995 92.5632 35.6785 87.2792C36.2538 82.8308 34.1343 82.549 33.3045 78.9968C32.9296 77.3893 31.9925 74.0325 31.9925 74.0325" fill="#0A0A0A"/>
<path d="M32.1822 86.12C32.1559 86.1218 32.8421 90.9256 27.245 91.6415C23.37 92.1377 21.1796 88.3676 21.0913 88.3856C21.4849 88.2137 22.1335 87.919 22.3145 87.8095C22.9994 87.3955 23.5239 86.8753 23.4784 85.6686C23.4523 84.9731 22.5569 81.5709 22.4767 80.8784L28.6025 80.9854C28.8152 82.4395 28.925 85.8888 31.0538 86.0672C31.4087 86.0959 31.7869 86.1118 32.1822 86.12Z" fill="#E98862"/>
<path opacity="0.52" d="M29.5045 84.9656C29.3522 84.6887 29.2306 84.3959 29.142 84.0926C28.9333 83.4016 28.8009 82.6898 28.747 81.97C27.5235 82.0536 26.3011 81.7923 25.2186 81.2158C25.1922 81.6399 24.9531 83.5177 25.1975 83.8656C25.6586 84.5224 27.3719 85.4026 29.5045 84.9656Z" fill="#0C0C0C"/>
<path d="M28.2452 83.9926C25.918 84.4312 22.7944 83.7655 21.8841 80.6952L21.0621 77.925C20.1513 74.8547 21.0254 71.8874 23.9162 71.0298C26.807 70.1722 29.7061 72.02 30.6165 75.0906L30.9804 76.3171C31.3304 77.4947 32.3981 83.2101 28.2452 83.9926Z" fill="#E98862"/>
<path opacity="0.52" d="M28.7361 79.5574L28.7417 79.5559C28.8587 79.5203 28.9737 79.4783 29.0861 79.43C29.2537 79.3566 29.4714 79.2411 29.4258 79.0878C29.3741 78.9127 28.3348 77.1667 28.2165 76.969C28.2061 76.9516 28.1893 76.9391 28.1697 76.9342C28.1501 76.9293 28.1294 76.9323 28.112 76.9427C28.0947 76.953 28.0822 76.9698 28.0773 76.9894C28.0723 77.009 28.0754 77.0297 28.0857 77.0471C28.5288 77.7903 29.2451 79.0134 29.2799 79.1312C29.266 79.1888 28.9891 79.3239 28.6984 79.4101C28.6799 79.416 28.6644 79.4288 28.655 79.4458C28.6456 79.4628 28.643 79.4828 28.6478 79.5016C28.6526 79.5204 28.6644 79.5367 28.6808 79.5471C28.6972 79.5575 28.717 79.5612 28.7361 79.5576V79.5574Z" fill="#0C0C0C"/>
<path opacity="0.52" d="M28.4369 80.9534C28.9114 80.842 29.3531 80.6207 29.7264 80.3074C29.7341 80.3011 29.7406 80.2934 29.7454 80.2846C29.7501 80.2758 29.7532 80.2662 29.7542 80.2563C29.7553 80.2463 29.7544 80.2363 29.7515 80.2267C29.7487 80.2171 29.744 80.2082 29.7378 80.2004C29.7315 80.1926 29.7237 80.1862 29.715 80.1814C29.7062 80.1766 29.6966 80.1736 29.6866 80.1725C29.6767 80.1715 29.6666 80.1724 29.6571 80.1752C29.6475 80.178 29.6385 80.1827 29.6308 80.189C28.8205 80.8425 27.9676 81.0216 27.1643 80.7071C27.148 80.7003 27.1314 80.6943 27.1145 80.6893C27.0949 80.6844 27.0742 80.6874 27.0569 80.6978C27.0396 80.7082 27.0271 80.725 27.0222 80.7445C27.0173 80.7641 27.0203 80.7848 27.0307 80.8022C27.0411 80.8195 27.0579 80.8319 27.0775 80.8369C27.0837 80.8387 27.0942 80.8431 27.1087 80.8489C27.5312 81.0152 27.9936 81.0515 28.4369 80.9534Z" fill="#0C0C0C"/>
<path d="M18.8037 79.1494L21.3963 78.3961C23.3151 77.3828 23.5673 73.8571 23.5673 73.8571C23.5673 73.8571 26.2381 75.979 31.9922 74.0323C31.9922 74.0323 29.9755 65.9378 21.5163 69.2116C18.7887 70.2672 17.0624 73.2997 17.6978 77.0533C18.1444 79.6837 18.8037 79.1494 18.8037 79.1494Z" fill="#0A0A0A"/>
<path d="M22.341 81.5775C21.4625 81.8382 20.4715 81.109 20.2109 80.2311C19.9502 79.3532 20.5187 78.6569 21.3979 78.3962L22.0251 78.8506L23.097 81.3534L22.341 81.5775Z" fill="#E98862"/>
<path d="M28.604 75.4171C28.8481 75.2218 29.1403 75.0957 29.4499 75.0522C29.6022 75.0298 29.757 75.0305 29.9091 75.0541C30.0595 75.077 30.2064 75.1186 30.3464 75.178C30.3661 75.1853 30.382 75.2001 30.3908 75.2191C30.3997 75.2381 30.4006 75.2599 30.3934 75.2796C30.3863 75.2993 30.3716 75.3154 30.3527 75.3244C30.3337 75.3333 30.312 75.3344 30.2922 75.3274L30.2863 75.3254C30.1574 75.2776 30.0231 75.2461 29.8864 75.2317C29.7512 75.2169 29.6146 75.2226 29.4811 75.2486C29.2162 75.2979 28.9691 75.4165 28.7647 75.5922L28.7582 75.5981C28.7466 75.6092 28.7329 75.6178 28.7179 75.6235C28.7029 75.6291 28.6869 75.6317 28.6709 75.6311C28.6548 75.6304 28.6391 75.6266 28.6246 75.6197C28.6101 75.6129 28.5972 75.6032 28.5865 75.5912C28.5758 75.5793 28.5676 75.5653 28.5625 75.5501C28.5573 75.5349 28.5553 75.5189 28.5565 75.5029C28.5577 75.4869 28.5621 75.4713 28.5694 75.4571C28.5767 75.4428 28.5868 75.4302 28.5992 75.4199L28.604 75.4171Z" fill="#0C0C0C"/>
<path d="M26.4029 76.2455C26.1359 76.2082 25.8638 76.2422 25.6142 76.344C25.4879 76.3945 25.37 76.4638 25.2643 76.5494C25.1573 76.6356 25.0614 76.7348 24.979 76.8448L24.9752 76.8494C24.9621 76.8652 24.9435 76.8753 24.9231 76.8776C24.9028 76.88 24.8823 76.8743 24.866 76.862C24.8497 76.8496 24.8388 76.8314 24.8356 76.8111C24.8324 76.7909 24.8371 76.7702 24.8487 76.7534C24.9343 76.6274 25.0354 76.5127 25.1497 76.412C25.2648 76.3099 25.3946 76.2257 25.5347 76.1621C25.8185 76.031 26.1324 75.9786 26.4434 76.0106C26.4741 76.015 26.5019 76.0311 26.521 76.0556C26.54 76.0802 26.5487 76.1111 26.5453 76.142C26.5419 76.1729 26.5266 76.2012 26.5027 76.221C26.4788 76.2407 26.4481 76.2504 26.4171 76.248H26.4121L26.4029 76.2455Z" fill="#0C0C0C"/>
<path opacity="0.52" d="M28.612 81.6531C28.6981 81.6343 28.7824 81.6082 28.8641 81.575C28.8741 81.5719 28.8835 81.5668 28.8914 81.5599C28.8994 81.553 28.9059 81.5446 28.9104 81.535C28.9149 81.5255 28.9174 81.5152 28.9178 81.5047C28.9181 81.4941 28.9162 81.4836 28.9123 81.4739C28.9083 81.4641 28.9024 81.4553 28.8949 81.4479C28.8873 81.4405 28.8783 81.4348 28.8685 81.4311C28.8586 81.4274 28.8481 81.4258 28.8376 81.4264C28.827 81.427 28.8168 81.4297 28.8074 81.4345C28.3157 81.6317 28.0079 81.4679 27.9952 81.4609C27.9776 81.451 27.9568 81.4486 27.9374 81.454C27.918 81.4595 27.9015 81.4725 27.8917 81.4901C27.8818 81.5077 27.8793 81.5285 27.8848 81.5479C27.8903 81.5673 27.9033 81.5838 27.9209 81.5936C28.1375 81.6926 28.3816 81.7136 28.612 81.6531Z" fill="#0C0C0C"/>
<path d="M21.3996 78.362L21.3658 78.2916C24.5929 76.7488 23.4387 73.547 23.4267 73.5158L23.4998 73.4883C23.5121 73.5206 24.6905 76.7886 21.3996 78.362Z" fill="#0C0C0C"/>
<path opacity="0.1" d="M26.3838 80.0297C26.7661 79.9488 27.0278 79.6559 26.9685 79.3754C26.9092 79.095 26.5511 78.9333 26.1689 79.0142C25.7866 79.0951 25.5248 79.388 25.5841 79.6684C25.6435 79.9488 26.0015 80.1106 26.3838 80.0297Z" fill="#0C0C0C"/>
<path opacity="0.1" d="M30.3647 78.5294C30.4248 78.8092 30.7826 78.9707 31.165 78.8905C31.231 78.8763 31.2954 78.8553 31.3572 78.828C31.3447 78.4889 31.3166 78.1642 31.2791 77.8645C31.1694 77.8473 31.0574 77.8508 30.949 77.8748C30.5672 77.9549 30.3055 78.2482 30.3647 78.5294Z" fill="#0C0C0C"/>
<path d="M30.2099 76.372C30.415 76.372 30.5813 76.2057 30.5813 76.0006C30.5813 75.7954 30.415 75.6292 30.2099 75.6292C30.0048 75.6292 29.8385 75.7954 29.8385 76.0006C29.8385 76.2057 30.0048 76.372 30.2099 76.372Z" fill="#0C0C0C"/>
<path d="M26.5496 77.3795C26.7547 77.3795 26.921 77.2132 26.921 77.0081C26.921 76.803 26.7547 76.6367 26.5496 76.6367C26.3445 76.6367 26.1782 76.803 26.1782 77.0081C26.1782 77.2132 26.3445 77.3795 26.5496 77.3795Z" fill="#0C0C0C"/>
<path d="M41.172 95.163C41.4163 97.2383 43.1796 110.138 43.5276 112.685L20.52 117.399C19.9255 115.16 17.3113 105.37 15.9104 101.04C14.5734 96.9074 13.3099 94.8052 13.6337 92.7996C14.0118 90.4584 17.103 89.521 19.1059 88.82C20.329 88.3919 22.196 87.8829 22.196 87.8829C22.196 87.8829 23.0203 91.0908 26.8771 90.4884C32.1273 89.6681 31.0287 86.0729 31.0544 86.0676C31.8969 85.8958 36.0992 85.6094 37.4195 86.066C41.0171 87.3077 40.6547 90.7644 41.172 95.163Z" fill="#F7CA00"/>
<path d="M41.4052 96.5627L41.2506 96.5852L42.4164 104.6L42.571 104.577L41.4052 96.5627Z" fill="#0C0C0C"/>
<path d="M11.6684 129.659L4.14502 127.565C7.62558 115.059 13.2762 94.4888 13.6212 92.5349C13.5924 92.7198 13.5799 92.9068 13.584 93.0939L21.3924 92.9835C21.4033 93.7527 21.4099 94.2173 16.4693 112.265C14.0972 120.93 11.6923 129.573 11.6684 129.659Z" fill="#F7CA00"/>
<path d="M19.3399 100.501L17.7628 107.604L17.9153 107.638L19.4923 100.535L19.3399 100.501Z" fill="#0C0C0C"/>
<path d="M36.1021 114.789C36.1021 114.789 56.6172 104.191 62.2998 102.231C63.7717 101.723 66.4613 101.255 68.7671 102.603C75.6446 106.625 93.8068 122.999 93.8068 122.999L89.3947 129.592L65.4019 112.409C65.4019 112.409 53.9057 120.611 43.5276 124.218L33.052 122.98L36.1021 114.789Z" fill="#262626"/>
<path d="M96.5038 124.906C96.5038 124.906 100.178 124.309 100.483 120.894C100.787 117.479 103.491 118.301 103.491 118.301L103.105 131.374L96.5739 131.182L96.5038 124.906Z" fill="#367CFF"/>
<path d="M29.596 131.19C29.596 131.19 28.4988 131.116 30.9901 131.198C40.283 131.504 98.6334 131.351 98.6334 131.351L98.6629 122.598L29.6158 117.699L29.596 131.19Z" fill="#262626"/>
<path d="M54.417 119.508C54.4138 119.508 54.4105 119.508 54.4072 119.508L47.6015 118.65C47.5913 118.649 47.5815 118.645 47.5725 118.64C47.5636 118.635 47.5558 118.628 47.5495 118.62C47.5432 118.612 47.5386 118.603 47.5359 118.593C47.5331 118.583 47.5324 118.573 47.5337 118.563C47.5348 118.552 47.538 118.542 47.543 118.533C47.5481 118.524 47.5549 118.517 47.563 118.51C47.5712 118.504 47.5805 118.499 47.5905 118.497C47.6004 118.494 47.6108 118.493 47.621 118.495L54.4267 119.353C54.4474 119.354 54.4668 119.363 54.4805 119.379C54.4943 119.395 54.5013 119.415 54.5 119.436C54.4987 119.456 54.4892 119.476 54.4737 119.489C54.4581 119.503 54.4377 119.51 54.417 119.509V119.508Z" fill="white"/>
<path d="M93.2097 122.229H93.2041L76.8516 121.071C76.8309 121.069 76.8116 121.06 76.798 121.044C76.7844 121.029 76.7776 121.008 76.779 120.987C76.7804 120.967 76.7901 120.947 76.8057 120.934C76.8214 120.92 76.8418 120.913 76.8626 120.915L93.215 122.073C93.2357 122.074 93.2553 122.083 93.2695 122.098C93.2836 122.113 93.2912 122.133 93.2905 122.154C93.2898 122.175 93.2808 122.194 93.2657 122.209C93.2506 122.223 93.2304 122.23 93.2097 122.229Z" fill="white"/>
</svg>
