<svg width="24" height="24" viewBox="0 0 24 24" fill="none" xmlns="http://www.w3.org/2000/svg">
<path d="M1.97058 12.3871V7.81715C1.97058 6.62715 2.70058 5.56711 3.81058 5.14711L11.7506 2.14711C12.9906 1.67711 14.3206 2.59714 14.3206 3.92714V7.72713M6.47058 11.9771H13.4706M17.5106 13.5271C17.0906 13.9371 16.8506 14.5271 16.9106 15.1571C17.0006 16.2371 17.9906 17.0271 19.0706 17.0271H20.9706V18.2171C20.9706 20.2871 19.2806 21.9771 17.2106 21.9771H5.73058C3.66058 21.9771 1.97058 20.2871 1.97058 18.2171V11.4871C1.97058 9.41712 3.66058 7.72711 5.73058 7.72711H17.2106C19.2806 7.72711 20.9706 9.41712 20.9706 11.4871V12.9271H18.9506C18.3906 12.9271 17.8806 13.1471 17.5106 13.5271ZM22.0294 13.9473V16.0073C22.0294 16.5573 21.5894 17.0073 21.0294 17.0273H19.0694C17.9894 17.0273 16.9994 16.2373 16.9094 15.1573C16.8494 14.5273 17.0894 13.9373 17.5094 13.5273C17.8794 13.1473 18.3894 12.9273 18.9494 12.9273H21.0294C21.5894 12.9473 22.0294 13.3973 22.0294 13.9473Z" stroke="#787878" stroke-width="1.5" stroke-linecap="round" stroke-linejoin="round"/>
</svg>
