<svg width="16" height="17" viewBox="0 0 16 17" fill="none" xmlns="http://www.w3.org/2000/svg">
<path d="M11.5807 13.7178L13.4741 11.8538L13.0567 11.4358L11.5807 12.8912L10.9441 12.2412L10.5261 12.6625L11.5807 13.7178ZM4.51341 6.3205H11.4881V5.65384H4.51275L4.51341 6.3205ZM12.0001 15.2438C11.2574 15.2438 10.6274 14.9849 10.1101 14.4672C9.5923 13.9498 9.33342 13.3198 9.33342 12.5772C9.33342 11.8345 9.5923 11.2043 10.1101 10.6865C10.6279 10.1687 11.2579 9.91006 12.0001 9.9105C12.7423 9.91095 13.3725 10.1696 13.8907 10.6865C14.409 11.2034 14.6676 11.8336 14.6667 12.5772C14.6667 13.3194 14.4081 13.9494 13.8907 14.4672C13.3725 14.9849 12.7423 15.2438 12.0001 15.2438ZM2.66675 14.3458V4.24384C2.66675 3.94517 2.77164 3.69095 2.98141 3.48117C3.19119 3.27139 3.44541 3.1665 3.74408 3.1665H12.2567C12.5545 3.1665 12.8085 3.27139 13.0187 3.48117C13.2285 3.69095 13.3334 3.94517 13.3334 4.24384V8.2065C13.225 8.1665 13.1174 8.13228 13.0107 8.10384C12.9036 8.07539 12.789 8.05317 12.6667 8.03717V4.24384C12.6667 4.14117 12.6241 4.04695 12.5387 3.96117C12.4534 3.87539 12.3592 3.83273 12.2561 3.83317H3.74408C3.64141 3.83317 3.54719 3.87584 3.46141 3.96117C3.37564 4.0465 3.33297 4.14073 3.33341 4.24384V13.1998H7.56275C7.59297 13.3821 7.63208 13.5603 7.68008 13.7345C7.72853 13.9087 7.79586 14.0749 7.88208 14.2332L7.85941 14.2558L7.10275 13.7052L6.20541 14.3458L5.30808 13.7052L4.41075 14.3458L3.51275 13.7052L2.66675 14.3458ZM4.51341 11.3458H7.65275C7.67764 11.2236 7.7083 11.1092 7.74475 11.0025C7.78119 10.8958 7.82386 10.7881 7.87275 10.6792H4.51341V11.3458ZM4.51341 8.83317H9.38675C9.60453 8.66117 9.83786 8.51784 10.0867 8.40317C10.3356 8.28806 10.6016 8.20917 10.8847 8.1665H4.51275L4.51341 8.83317Z" fill="#1D1D1D"/>
</svg>
